<mxfile host="app.diagrams.net" agent="Mozilla/5.0 (Windows NT 10.0; Win64; x64) AppleWebKit/537.36 (KHTML, like Gecko) Chrome/132.0.0.0 Safari/537.36" version="26.0.10">
  <diagram name="Page-1" id="z7e8C3QR9_xOx7Hr0WeE">
    <mxGraphModel dx="1050" dy="505" grid="1" gridSize="10" guides="1" tooltips="1" connect="1" arrows="1" fold="1" page="1" pageScale="1" pageWidth="850" pageHeight="1100" math="0" shadow="0">
      <root>
        <mxCell id="0" />
        <mxCell id="1" parent="0" />
        <mxCell id="XLbjQa036LFI9UmfvoyX-1" value="Разработчик&amp;nbsp;&lt;div&gt;на софтуер&lt;/div&gt;" style="shape=umlActor;verticalLabelPosition=bottom;verticalAlign=top;html=1;outlineConnect=0;" vertex="1" parent="1">
          <mxGeometry x="120" y="200" width="30" height="60" as="geometry" />
        </mxCell>
        <mxCell id="XLbjQa036LFI9UmfvoyX-2" value="" style="verticalLabelPosition=bottom;html=1;verticalAlign=top;align=center;strokeColor=none;fillColor=#00BEF2;shape=mxgraph.azure.visual_studio_online;" vertex="1" parent="1">
          <mxGeometry x="270" y="216.25" width="50" height="37.5" as="geometry" />
        </mxCell>
        <mxCell id="XLbjQa036LFI9UmfvoyX-3" value="" style="dashed=0;outlineConnect=0;html=1;align=center;labelPosition=center;verticalLabelPosition=bottom;verticalAlign=top;shape=mxgraph.weblogos.github" vertex="1" parent="1">
          <mxGeometry x="460" y="60" width="75" height="75" as="geometry" />
        </mxCell>
        <mxCell id="XLbjQa036LFI9UmfvoyX-4" value="" style="verticalLabelPosition=bottom;html=1;verticalAlign=top;align=center;strokeColor=none;fillColor=#00BEF2;shape=mxgraph.azure.git_repository;" vertex="1" parent="1">
          <mxGeometry x="380" y="210" width="50" height="50" as="geometry" />
        </mxCell>
        <mxCell id="XLbjQa036LFI9UmfvoyX-5" value="" style="shape=image;html=1;verticalAlign=top;verticalLabelPosition=bottom;labelBackgroundColor=#ffffff;imageAspect=0;aspect=fixed;image=https://cdn1.iconfinder.com/data/icons/picons-social/57/github-128.png" vertex="1" parent="1">
          <mxGeometry x="231" y="50" width="128" height="128" as="geometry" />
        </mxCell>
        <mxCell id="XLbjQa036LFI9UmfvoyX-6" value="" style="image;sketch=0;aspect=fixed;html=1;points=[];align=center;fontSize=12;image=img/lib/mscae/Docker.svg;" vertex="1" parent="1">
          <mxGeometry x="350" y="310" width="50" height="41" as="geometry" />
        </mxCell>
        <mxCell id="XLbjQa036LFI9UmfvoyX-7" value="" style="sketch=0;aspect=fixed;pointerEvents=1;shadow=0;dashed=0;html=1;strokeColor=none;labelPosition=center;verticalLabelPosition=bottom;verticalAlign=top;align=center;fillColor=#00188D;shape=mxgraph.mscae.enterprise.code_file" vertex="1" parent="1">
          <mxGeometry x="430" y="310" width="49" height="50" as="geometry" />
        </mxCell>
        <mxCell id="XLbjQa036LFI9UmfvoyX-9" value="" style="shape=image;verticalLabelPosition=bottom;labelBackgroundColor=default;verticalAlign=top;aspect=fixed;imageAspect=0;image=data:image/png,iVBORw0KGgoAAAANSUhEUgAAAgAAAAIACAYAAAD0eNT6AAAAAXNSR0IArs4c6QAAIABJREFUeAHsvQ2oJdWVL35pzEMywX8j+XC676na6RERJwRJMsEnkjFBMpIwSSY4wckTEckTkSD9Mkn31RE5MvbZVaeTNDaDj2bEMTgkOCIo4tx7HYORYBpxRBrGF5okjI1xmk4jTiOhkdD8/r3qnrpd99w659TH3rt2Vf0amlO3PtZe67dW7bVqf6y1tMR/ThFQQ1ysxrg6jPF1NcI+FSEOR3hYRfjRIMJTKsK6ivCS0jgWxvi1inEy0HhPxYDSOBvEOK1ivBlEeGOgcTSM8cJ5ek8HER5XMY6EEX4QjHF/MMatYYRrP3YQH3UqIBsjAkSACBABItB3BMIxPhVq3B5EODxx6qcSRy7O3OF/CSCCGK9KkKFi7FUa1186xCV91w/lJwJEgAgQASJQC4FdQ3wwiHBdMMLdSuMxFeN1lw6+aluBxm9k1GEQ4V6lcSNHC2qZAR8mAkSACBCBriMgw/iDCF+VoftA442qDtjH54IYb0tQICMXu76PD3ddl5SPCBABIkAEiMBcBAYxdg1i3BVoPOej47bFU6DxchjhvmCEq+YCxItEgAgQASJABLqCwOWHcclkDv+FQOOcLSfbGroax2ThogRDXdEx5SACRIAIEAEisImAivE1WVnfGsfscEHhJiYRXgo07pDpkE3geEAEiAARIAJEoG0IyHy3irCiNE5sOrkmHGvL2gxGeCfZeqixp206J79EgAgQASLQYwRkr/xkD73TrXldDDLO74R4QfIb9NicKDoRIAJEgAj4jIAMW0/m9l/roiP2QKY3kyRHh7DTZzsgb0SACBABItATBNQQO0ONB2XY2gMn2ZcRhyPncyOonpgYxSQCRIAIEAGfEEjS70ra3Rjv0vG7zUKY4K3xvqwTkADMJ7sgL0SACBABItBVBIbYoTRuC2K8RcffgOOfXtAY4UygsZ87B7r6wlEuIkAEiIAHCAwifK5rWfo6E8RonAgi3LI0xA4PTIUsEAEiQASIQBcQ2D3CFWGM1c44y+mv6G79/fpyjM92we4oAxEgAkSACDSEQJK1T8rqdstB9mKhYBDjyd0xlhsyHTZLBIgAESACbUVARbhZaTRSapcBh5m1BVKyWMW4m9MCbX0LyTcRIAJEwCECkpNeRVinEzbjhH3AMYjx6uAAPuHQjNgUESACRIAItAkBpXFnoPF7H5wWeTAfgARj3N8meySvRIAIEAEiYBkBmetXGs/Q6Zp3ur5hGkb4OdcGWH6hSJ4IEAEi0AYEzueav07FOOmboyI/FoORCGcGEb7aBvskj0SACBABImABATXCA111tGGMX4cxXggjPDmI8EhSXW+M+1WMvcEYtybliTWuDyN8OYzwzUGMu5LKhRFiFeOIGuEJ2foYjvCq0jjbUZyOWDArkiQCRIAIEAFfEdg1xAe7sK8/1DgdaLwcxng0yYYX42tqhCuXhrjINPYybB4cxA1JoKDxUIKfJN/RONfy4OColG02jRfpEQEiQASIgGcIBBp7VITjbXRagcZvEmcvX/CeFMP5yBAfCkf4kpKRgwivBBp/aBu2gcbJcIxPeWaqZIcIEAEiQARMITDQ+KLSONMWByXD+DIcLylu1RiXmcLBJh0ZXVEaNwYj6IHG0bZgLXwmqYRtgkPaRIAIEAEi4B6BZO67BV+nUmtAtqsta1zuHiXzLSbZFDVuP7/Y8oVWjA6MoZk4yLwdkCIRIAJEwD0CQ+yQYXPPv0TflC9mNcbV7gFy1+LHDuKjoca3Zd2Cz2sHAo3nWF3QnV2wJSJABIiAcQSS/f0RXvLR+QcjvBNEOBxGuNa44C0guCtCIAsXgwhv+KgfFeP1tky7tEDdZJEIEAEi4A6B5R/iUqVxzDfnEmr8dhDhOzJX7g4Nv1uSRYSSoMc3XSmNE0wa5LftkDsiQASIwBYE5MvNu5X+EY6HGrd/+gg+sIVZ/rGJgIpxTajxrE/TA0GMt7uyHmMTaB4QASJABLqIgGyPky83X74mpRBNEOMmLiwrbm3BCFcFER73ZdGg5FtYPoBPFpeAdxIBIkAEiIBTBHaPcIU3JXyllHCEm50C0LHGJKmR8mUNh8YZ5gromIFRHCJABLqBQJKpTjef01++WiXtriTI6QayzUshqYp9qNcgIwF7RriieUTIAREgAkSACCQISCpXyZLX9LC/bG9LUvFSL8YRuHSYVGx8qOlpAVkTwIWBxtVLgkSACBCB8giIY5DkOY06f41TzCJXXndVnpC5eEk53KS+k2CzJZkZq2DMZ4gAESAC3iMgyVpkkV2TziAc4WHJN+A9WB1jUHZUSC6FpnQvQSf13jGjojhEgAi0BIGNDH+rjTmAGKelOl5L0Ookm8l2z7i5egOSu4DbOjtpWhSKCBABnxGQbWJNOX/p+CWtrc/49IY3CQQ1Hmwsd4DGM73BmoISASJABJpGQIrlNOX8pe2m5Wf72xGQ0ZimtoDKro/tHPEMESACRIAIGEUgKekbA84DAI1Tfc3bb1SBFoklxYaaSyn8NYuikTQRIAJEoN8IDGLsUjHede78I6xLbYF+o98S6WVKIMJ9zrcLapyRAkctQYlsEgEiQARahIB07CP3K/5llX+LUCKrEwSUxo1K46zjYPF1LgqkCRIBIkAEDCOgxtAuO/NkUdkI+wyLQXIOEZDUvc63Cmo85FBENkUEiAAR6DYCSuN6p6u8Nd5PCvh0G9ZeSBdo7HFeHErjxl6ASyGJABEgAjYRSBZ2aZx29fUfaPx+EOFzNmUibbcIJKmiI6fZIt+V9SpupWRrRIAIEIEuIbCxoOvnrpy/bCNj2dcuGdAFWaQ4k9PKghFeYQnoC/jziAgQASJQCgE1wgOunL/MFQeHsKcUg7y5dQiEGs86tCndOoDIMBEgAkSgaQSSBVwa55x01hpn+OXftMbdtC/1I1wWExI7diMZWyECRIAIdAQBZxX+NN5XMa7pCGwUowACUsRHRTjuKLg8xqmAAkrhLUSACBABQSAY4W4XnbPsLAgjfJmo9w8BKSQUxHjbhZ0NInynfwhTYiJABIhASQRk1X+g8Z6LjjkY49aS7PH2DiGwe4QrXGSWlJ0lLB7VIcOhKESACNhBQI3whAvnLwsM7UhgjupyjM+qGHuTxZAbCyL3yohFMMJV5lrpNyWZ/nFhb0GMJ/uNNKUnAkSACMxBIKno5qDQzyDCU3PYaOxS4vBH2KcirBcZBUmGsCOsqwg3N8Z0BxoOI3zTSRBwEDd0AC6KQASIABEwjMAQFwUav3HQEb8pe8INc1+d3BA7lMZttbPVaZxQI+yTBW7Vmenvk2GMR23bntj30hAX9RdlSk4EiAARyEFAKrjZ7oCFvnxl5zTfyCkZzlcavzQpt8w3BxEOqyF2NiJUSxtNtgca1kWeXgcR7m0pRGSbCBABImAegd0xlh1VbttrnvvyFC8d4hLbax1CjdMytF2eu/4+IWsrJIDKc9zGzmmcFXvvL8qUnAgQASKQQWAQ4RFjHeyMNQSSAS7TZGOHknDI0VQHEkwjrLNOfXF1hxq327ZFsffiHPFOIkAEiEBHEVAaynaHG8R4Sx1qfkg8jPF1RyMdG84/DYY0zqoIKx01IeNihTF+bNsmGZQZVxsJEgEi0DYEzgcAj9nsbCXZzyDGZ5rG5eMxvhJo/MGmrAtpaxxjatrFlpCsB4jx5kI80wCr2u+RxZzwDiJABIhARxFw8fUfxniwafjUAVxt2Zls/eJf5JA0Hto1xAebxsXn9l3ojKMAPlsAeSMCRMAqAtbn/jVOWBWgAHHZlud0zn+R859cDzV+G47wpQIi9PaWcISHbQZuQr+34FJwIkAE+ovAJOWv7SHxrzWNsMvys1WclWSoY5rafCtJigbFeLcKroWekbUZ3K6ZDz7PEgEi0F0EQo0HC3WSBb9op2mFMVabRk9qDUzz5eXfEc4MYtzVNF4+tm97V4Dkv/BRbvJEBIgAEbCCgCyyCkZ4x5ozlBK/GsoK80WJbmT4O2FNxoqB0QJ+jqoRriwqYl/uC0d4dQFu5dZgZHWncerTR/CBvmBJOYkAEeg5AvK1aa1Dlc7Vg0I/wQg3WZUx60RMH3uAn0+viOycsKlLGWXwSV7yQgSIABGwhkAY49fWOlTJiT/ExdaYL0g4iPCCNRlNO/w8ehGODyJ8rqC4nb9NxThiS59BhDc6DyAFJAJEgAjYrvgn8+5No5ykNs5zqi08Jzs1WGBoaUkWStoKACZ0r2nabtk+ESACRMAqAmGEJ611pLLtb4gdVgUoQFxp3GlNxiaCCI1TLDm8tJQUWbKFv8ZjBUyLtxABIkAE2omA9a8ojTt9QMZ2oZ+mggvZWdHnQjZWR3ZkS6AH6ap9eH/IAxEgAh1EQEqh2nJeQYzTvqymDjTesCVn03QDjfdUjL0+jLQ08YqEMR61qIO7m5CJbRIBIkAErCNgMyPeIMJ3rAtQsAGLDqL6djPDQ9fJ1rgxri4ISWdu2zPCFbb0G8R4tTNAURAiQASIQIqAGlvNh/+uDyv/N2U17GxtOZy6dKW40SDCQZ+wT3Vg89fmFE+fp1hs6oy0iQARaBABm5n/ZGqhQdG2NV3XseY+r3Em97wPwYbGCdndsQ2Ijp4YHMAnrOlihH0dhY1iEQEi0FcElOzPt+CsZE7at21qNuQMI3wzWUMhi8Us4GiCZhjjx7u+jw/3wcaVxjMmMJumIVMrfcCPMhIBItATBGxmUgs0/tE3GKc7dRN/S2ZBkVNSHIdjvGiCpg0akuK5D5ntBhpftIGf0OQ0gG9vNPkhAkSgMgKWh/+9y1ZnwzEEEb6RVUAQ4RbZ+WCjLSM0I7zUeD2GLGCmjzdqPZwygtX2EZ29ptklPSJABIhAIwgEEV6z0VEGMd5qRKAFjVqRdSoAEBaklOx5J/uYjfaM0NQ4K9XufNmeuUBtpS8HEQ4ZwWkqAJA00qWZ4QNEgAgQAd8QWP4hLrXRSSY0x9C+ySv82JB3egQgK/d5h3GdinDcRrsmaEpehOUYn83y3IXjQYzPmMBnmobsrtg1xAe7gBFlIAJEoMcIWK2n7mnp2ukO3cTf8wIAMS/5ypYqiEpKIU99Ufrwd6BxLhzhYd8WbNZ9NQONX9nAdxDhq3V54/NEgAgQgUYRGER4ykYHqTSONSrYnMZtyLsoAEjZWda4XMn8u4dBgPAUxHg7jPH1lN+2/wZj3G8J6yNtx4b8EwEi0HMElKX96+EI3/UVWhsOoWgAkGIiIy+yIt8GLyZohhrPqjEuS/lt629wCHtM4LGNRoTjbcWEfBMBIkAEloIRrtrWsRn4MpXhZCks5CvEVmTOWQS4SH7Zky97823wY4SmxplQ49ttryugYhw1gsfUuyHrZxbpmNeJABEgAl4iEGjcYaNj9D1nuhWZKwQAqVEojettJWIyIavoU7Lrpfy27ddWkauPx/hK27Agv0SACBCBBAFbW9Qk/7zPEJtwitM0yk4BTOMj+frVGFpWmE/T9uJvjfeDEXQb6wqEEa61gqGnu1ymbYt/EwEiQAS2IWBra1oY4cvbGvPohA1nUDcASOGRL2354rbBowmaScVIjetTflvxu5EUyHyK5ggvtUJ+MkkEiAARyCJgc///pUNckm3Lt2MTjnCaRpoK2JSsgxh3SR2F6Xa8+VsSHA2x05S8tumoCOumsQs0fm+bb9InAkSACBhHIIzxedMdotCTrILGmTVM0JLcW1IBm2BZVuEHMZ60wa8JmpLqWFIem5DVNg3JeGhC5mkae0a4wjbvpE8EiAARMIqAirF3ujMz8XcY4QdGGbVAzISc0zRMTQHkiRuO8CVJqzzdpi9/S/GjXRGCPN59OZdkY5xaxW8Cvy7lTPBFV+SDCBABywiEMR410QFO02hDhrRpnk38bTMAEFOQ1LMSXPm6SFCGw9UI+7zdMmhrHcAID1h+VUmeCBABImAWAalrbsLxZWnI/v825EjP8mzq2HYAkGp/+QA+qWK8bopv43QivDKIsSvl16dfKeJjXN4xnvZJRvJCBIgAEViIgNIwvipaVogvbNiDG4w7AVn7MMJNLkWTKZzkq9vCsHZdfCTDoawxcYlHkbZUhLiubNueZ0bAItDzHiJABHxBYHeM5W0dmQlHEmHdFxnn8WFDdlcjAFm55Es7SdlrQneGachURRjhm1l+mz62kfhK5GxaLrZPBIgAESiMgK0FUUGEw4WZaPDGrgQAKYQSfKgYJ23IVZdmkko4ZbTh30GEz9WVJ+953xdANgw7mycCRMAnBIIxbs3ryOqeC0a42yc5Z/FSV86855sYAcjKJ2V8JQCTdRh5/DV1TvhZjvHZLK9NHcuIiQ0cJLBoSia2SwSIABEohUBSl97wkK90rAONL5ZipKGbbTgB12sAZkEnzjbQeMOGjFVpyhZGCVBm8ezyvI3kShJQu5SBbREBIkAEKiOgIvyoamc+77lAY09lphw+OE+Gqtd8CQBSGAON/TYWelbGx5PpIRs7KIIx7k9x5y8RIAJEwGsELKVFbc1iqKpObN5zTU8B5BmczE3b0PU8HGZdS6YCDuCTeXy6PGcjs2I4wsMuZWBbRIAIEIHKCEi63lkddeXzGr+szJDjByvLOGfaxMcAIIVVRbhZaZyyIXcZmrJjIeWpqd+kouEcPZaRZ/PeEZ5oSh62SwSIABEohYCN2vOSDrYUEw3evNlxG3QEPgcAArXMwasYR5pcJChtyxbUBlW/pGLcbVr/YYwXmpSJbRMBIkAECiNgYyGU0nimMAMN32jaAQg93wOAFPJkC6jGL21gUIRmqPFgyksTv5Z2wLzehCxskwgQASJQGoEiHXXZe4IIj5dmpKEHyspW5P62BAAC+aeP4ANJdTwL2SAXYSU7FBpSe9KsFO9ZxGPp6xonmpSJbRMBIkAECiNQuoMrMFTepoVQNuT3bRdAEWOQUrYydWMDj3k0m9wtEhzEDfN4q3JNRtSK4M17iAARIAKNI1Clk1v0zCDCwcYFK8jAIlmqXG/TCMA0TDIsHmqcriJ3pWc0bpvmwdXfKsY1lXheFAQPcbErGdgOESACRKAyAjY6QBlSrsyQ4wdtyN/mAEDg3/V9fNhWfohpvKWssWOVbzY3qaaIaZ5q/z3GZZuN8IAIEAEi4CsCtTu7/K+hvb7KO82XDfnbHgCkGEkVP6nqaAOjlGag8VzanuvfJDdCvv3WCgqCEa5yLQvbIwJEgAiURiDtiE3+hhq3l2akoQdMyp3S6koAICpRQ1wcxnhQabyfymfyd6BxtCHVLy3/EJealCWlxXoATWmU7RIBIlAKgbTTMvob4eZSTDR4s1G5J1+TbVwEuEgFaoQrA42XTePV9E4A0/IIvUGEry7Ck9eJABEgAo0jIDXMTXeCbSqIYlp2odelEYDUQHePcEXXAgAZ3bChf9lemOLGXyJABIiAtwjYKBIziHGXtwJPMWbDAXQpAEic5Bja1hSABBVTKnH258cO4qM29B+O8CVnQrAhIkAEiEBVBJTGGeOd4Aj7qvLj+jnjsssIwAg3uZbDRntK40YbqaK3YN5g1kilobbwYmhBoOQXsKEP0iQCRIAIGEUgGOEd453gCA8YZdIiMeOyd2AKQI1xWRjhSRvYTNPs4jZASbFs0WRJmggQASJgBoEgxtvTnXLdv5vs1MuiUlfWvOfbPAWgYuy1Uh9ixtd1EOGWsjozdX8Y4do8/dU9txzjs6Z4JB0iQASIgDUEZBV23Q4v5/kj1hg2TDiH91p7wIVeG6cAxGkpjWM28JhLU0MZVmlhcgONL87lbUbQsugZ5gEorALeSASIQJMI2FjZHcb4cZMylWl7UWde5XqbRgAuHeKSIMLhJkoDN70FMIhxUxX9LnyGmQDLvIK8lwgQgaYQCDWeXdihlf0SanBhV1kcjcveohEAGalQMU7awKAITUkwVFZfJu+3VA4YJnkkLSJABIiANQSkdG+RzrrMPUGMV60xbJhwGbmK3uv7CICkwD2/UO2FovLYuE9GHAYxdhlWZylyKsKKBdneLcUEbyYCRIAINIVAEOGQ6U6wTSVRTcsu9HxeAxCMcb8NmUvTHOPppmw+bTeM8WhpvheNhkU4ntLnLxEgAkTAawTCEb5rvBOMAUmy4rXgE+ZsyO5jACD56VWE4zbkrUIzHONTTdtHGOHnVXif94zQbFoutk8EiAARKISAinDzvA6t6rW27IWuKt+853yaAkgK3kT40Tx+G7jmxS6RIMZp07LLlFqhF483EQEiQASaRkActelOUOi1pSKgDdl9CQACjTtUZCHT46Jh8DnXQ43fqkPY2bTdCw82dK9alASraR2wfSJABBpGwFo61BF0w6IVat6GE2g6AJDKfSrCKzZkq0NTFv5J8p1CirF8U5L3YE6gUllOjdsss07yRIAIEAFzCFTu7OZ0oIMIT5nj0B4lG7I3tQZACvcEI2gbMhmh6VGNiDDCN43INPUOyFoLe9ZKykSACBABwwjYyAbYdJKXohDZcAJNBABSgc564Z4pZ1cSu71FdeLiPhmqL8l/oQyRu2Msu+CfbRABIkAEjCBgrfDLEBcbYdAiERtOwGUAIHvpZbTFhhxGaGqcHUT4qkUVViJtBTONM5WY4UNEgAgQgaYQCDUeNNLZT30hhjE+35RMRdu1IbeTNQBD7HBduKc0VhonfM2Lb6MKpqTVLmp3vI8IEAEi4AUCtrYCtmFFdGmnNhXk5D1vewSgscI9BWRP8RhEeMSH1f55L9jgAD6R8mnyNxzh4bz2eI4IEAEi4C0C8pVmsiPcpBXhJW+FnjC2yWsJ57boGVsjAFK4R5xME4V7FsmcXg9j/FrFuMZnvYca3075Nfk7iHGXz3KTNyJABIjAdgSG2BFo/N5kZyi0Ao0/LA2xY3uD/pwxLXMid4RvmJZwMkrTWOGehThpnA0j3PfpI/iAadlN07O15qUtya9M40l6RIAItBwBFePowk6+wley79uibMhscgRACveoCC/Z4NMUTSksJHy25RWwNP9/TrZhtgUD8kkEiAAR2ERAhpZNOYQsHSk+s9mIhwdZXk0dmwgA5Es6KdyjcdYUX6bpBBonZWTCQ7XOZMnW/L+K8frMRnmBCBABIuAzArZqo8vXoc9ym3aKQq/uIkDZPeFT4Z48jCRglDUJPus2jzdb8/9BhMN57fEcESACRMB7BGylBFYa7/u6GlyUkufc6p6rOgIghXukmEzd9q0+r3FMHcDV3hv0DAZVhHUb+EhmwRlN8jQRIAJEwH8Eghhv2+gcpSiNr9JbkbfsIsCNRZh32JibNiafTooK7fV9Uec8O5MS1bIw1Rgm2TUxGmpe27xGBIgAEfAaAWWpbGw4xou+Cm7DGZSZApAtmJJAxgYfBmn+RI1xma86LMqXinG3QUw2UwMHMd4qygPvIwJEgAh4iYDSuM1GByk0JWWtj0LbkLdIALBriA8OIhy00b4xmhonlMaNPuqtCk+2drqoGEeq8MNniAARIALeICBfecacR3Z4VAKACN/xRtAMIzbkXbQGYKDxRVvTLUbkkXUbY+gubWuTANQINlN2PaH5tYxJ8ZAIEAEi0E4Eghiv2ugogwiv+YiIJVlzEwElTmiMp220aYqmTEfsHuEKH3VVhydJUmQKoyydZE0B9//XUQ2fJQJEwBcEbHWU0mkGh7DHFzlTPrKduanjbSMAQ+yQEZBA4z1TbZimE2qcDjVuT3Hp2m+g8RvTmAk937e5dk2PlIcIEAGLCCwfwCdtdJQJzREesMh6JdI2ZM2uAZC8+IHGGzbaMUVTCvfIFsRKALbgIZs2HYxwdwsgIItEgAgQgWII2PpaUhoninHg7i5TTjRLRwKAtHBP9rx3xxGO+56q2YQlSJIeW9j7urjVBG6kQQSIQA8RCEbQtjpMyTjoE6RW5JTtlBqnrNDOX4S2uSWtcJsRVnzSgy1edn0fH7ZR6EpwDiP83BbfpEsEiAARaASBpN68KUczTSfC8UaEmtGoLedQ2BFP42P577YV7pmhtsKnwxgPWtTF3sKM8EYiQASIQFsQkOF6ix2nN9umvP9SNxQQyLbD7NqEtthhHT4l14KthZeBxjnJLFiHPz5LBIgAEfASAavTADFe9UVo2Z5oMdApPzRvyOFnZQoiHGpj4Z66NhKO8N0sDiaPfc5uWRc3Pk8EiEDPEdgzwhUmO8xttDSu9wHiMMaPt/FmwQk30obGMVkB7wPOrnlIyinHOG0N95aVQXaNP9sjAkSg5QjIIidbHWgYY9UHeGR/vi0Zm6I7Gfbu9fY0KUBlC3/JmeCD7ZIHIkAEiIA1BGzWBpDOWQrhWGO+IGHhwZajaITuCE90oXBPQfXl3zbEDptrWKSGQ37DPEsEiAAR6AgCkgve1iIqcY5hjBd8gEpFON6IszY41SC5G4KDuMEHPJvmYRDjLpv6XNa4vGkZ2T4RIAJEwDoCtivW+bAyPdDYb9NhWKWt8X6o8WCXCvfUMWrJaKhivGsLc1+mrupgxGeJABEgAoUQsFxFDaHGb2W7ViFmLN1kM1mMLUeU0I3wkhrhSkuwtJKs0njMJuYcZWmlWZBpIkAEqiIQRHjcZqfqw5zqIMK9NmU0STuQ1e0at1XVZ1efk7oLJnHeRsuzJFZd1SPlIgJEwCMEbBZT2exkPfiSbcNaAAnGuly4p47ZK41jm/ZkcH3FJk0GXXXUw2eJABFoKwLKdh37CC81jU0Y4drNzt6GA6lBUyoKCn9NY+Rr+yrGXqu60zjlq+zkiwgQASJgFYHzAcDVVjvYjdrqt1gVogBxNcIDtuUsQz+pVSCFe4a4qAD7vbxFUvIqjTNlcC17L8v+9tK0KDQRIAIpAg5GAc7sjrGcttfUr4qwXtZB2LhfVpz7gEdTeijabqDxnA38U5pBjLeK8sL7iAARIAKdRMDFKIDyYCpAttQJH6kDcP0baJz0YXtkG4zYRSbHUOP2NmBBHokAESACVhFQMX5i2yHKvnaCs3JAAAAgAElEQVSrQhQgLrnklWTVqzFvX/bZQOMPUrjnI0N8qACLvb9lEOMzgllZnMvcLwmWlobY0XuwCQARIAJE4Pw+a1WmA616ry/7rZXGnVVlKPNcEONVGWGhhRVDQB3CTpvpflPdhTG+Xowj3kUEiAAR6AECSuOhtIO09SsFV3zJaS/bIMMRXrUhq6RaltS1PTAboyJaX48ii1I1XjbKNIkRASJABNqOgGTOs73qWpytL7UCUn0FEW4ZaBw1EQiI4w9G0NzTn6Jb/FfFuNuEDhbRkCmG4lzxTiJABIhATxBwsfhKOmjJ0OcbpDIiIHP1Kqq09ex1cWCXH8YlvsnVBn7UAfvbUcXuJOFSG/Agj0SACBCBRhBwlTlvEOGrjQhYoFFJPyvFhAKNf0y2D0Y4nuzdl33pEY6HY7woUyZSn96H8scFRPL2lqQuhcaJRV/uda+L/qQtb4EgY0SACBCBphGQhXp1O9tCz0vFO2bBa1rdjbYvIyauAk7JKtiosGycCBABItAGBEKNZws58brb6WS43YN6AW3QSdd4lLwMsiDPkZ290jX8KA8RIAJEwAoCMlQqC9pcdM5BjLd92RlgBUwS3Y7AEDuUxjNO7EtyCjDI3K4DniECRIAIzEJA5rdddNBJGxGOcwHdLE107/wgwiPObGuEB7qHICUiAkSACFhGIIzwc2cddYRXZFjYskgk3zACTgszaRxjxr+GFc7miQARaCcCuyIErqYCJNBIAo5D2NlOtMj1IgQkHbSzgFLWp3Dof5FKeJ0IEAEiMBsB2a7ntNPW+CXXBMzWRyuvDLHD6bD/xuJUrvpvpbGQaSJABLxCwEWa4C1BhsaJ4BD2eAUCmamEgBRgkhLIW/Rbd/fIouc9qD5ZCSw+RASIABHwEQFbefNnOYZghHeWY3zWRyzIUzEEJvv8nZZgFrvZHWO5GIe8iwgQASJABBYiIJ2qdK6zHLaN85K9zZcKggsB4g1bEPjYQXw0iPCGDbuYRTPQOBdEuG4LI/yDCBABIkAE6iMgnat0srM6YBvnk9rwEW6uzz0puEIg0NgTxHjLhj3MpTnCPlcysh0iQASIQO8QcFUwKNvRS9AxiHBwaYiLegd4ywQOR/hSxYJKyOq87LFkr2wZVGSXCBABItA+BFSMn5TtoE3cL6ljWdDFX3tJqikuWqBn47rGsV1DfNBfZMgZESACRKAjCCQru0d41YRTL0sjWYegcWNHoOyEGLI+xPUi0dRuJJW0rDfoBJAUgggQASLQBgR2fR8fDjROph2xy99ksdcImlnemreUpHqkFHWy8WW/mOa7u0e4onkUyAERIAJEoGcILB/AJ2WlfkOdP2RKQLIV9gx2b8SVdRlN6V5pnFUxrvEGDDJCBIgAEegbAvIFmKzUX/y1VmuR1yxHIwHIIMK9Mi3RN+ybkjfU+EKg8ZtZOrF9XuwtjPDlpuRnu0SACBABIjBBIIzxddfbA6edTBjj1wONL1Ip9hCQuX5XZXyn9Zv+ndgZt4XaUzIpEwEiQATKIhCMcWvaSTf6O8bTzARXVnvz75cqjcEY9zc53ZPalJSpns8trxIBIkAEiIBzBAYx7ko76qZ/xWE5B6CDDSqNG5sc7s/akUz1dBBiikQEiAAR6AYCXgUBMd5WI+y7dIhLuoGuIymG2DGZ1nk564AbPmZ1P0fqZzNEgAgQgcoINJEtcK5z0jgjK9aZRGi+SpOhfo07VITjc/F0uOAzmfPXuHM+57xKBIgAESAC3iAgX96+OJEtfET4UTDCVd4A5QEjaoidyRy/42JPW/QyI6iQtSUeQEQWiAARIAJEoAwCSuO2Ip18E/dIjXoZ5i4jT9fuHcT4TBDh8GRPvZVtmnV023f9dM3eKA8RIAI9Q0AWkfnqYMQ5TUocHxlE+FwfMgtK4qQwwn1K45d1nLPNZye5HT7Xs1eF4hIBIkAEuoeAZGwLYpy26TRM0JbUxsEIWo1wZZe0sPxDXBpqfFvFOGoCJ5s0koDsAK7uEv6UhQgQASLQawRkAV4QN1NAqJLDinA8HOHhj8f4ShsrzUnQpUZ4IIzw80ryz5iTt0lLthsGh7Cn1y8KhScCRIAIdBEBSdcbRHjcphOxQlvj/XCMF1WEFTU+/3U6xA7f9KPGuCzUuF2N8MRkWsO7Of15ugk1nuV2Td+sivwQASJABAwjoDTunOcMfL8mDnYSyNwt6YddFyQSRxlGuFYWWSYFeTSO+Y7ZPP6CEe42bGIkRwSIABEgAr4iEI7xKaVxYp5jaNu1IMJr8gUexngwiHCLLCxcjvFZqZq4Z4QrJFCQL3V1CDtlz32qm8sP4xKpaS8pjOW+wQF8YrJC/zopehNo7A9jPCrD+aH2fy1FCb29KXaQ4sBfIkAEiAAR6AkCsv9ctuOVcBitGtamXJiprzDGj/s+5J+U045xUzK1pPGYTDPJOpkgwhvJegiNkyrCmdSOZHdEMvoU460kWZPGsYHG0WRLa4QfyEJPGZFSGqonXQjFbDECpe1/hHek6FuylizCunxsqRhH1BhaxbhbPpa6toC7xeotzvpkhfpMZ5F2gPyd7VDbgk2g8V7fkvvICI84Zkm2pKTjcjTyFWi8IZ1kkp6bOyuKd0i80ygCTdh/EOMtCagHER4JR/iujMQaFYrEzCKwrHG5fM20xZGRzwrBSIRX+vB1mmy7jPBN2UWiPFqfIcFXEoCM8EBwEDeYfYNJjQhsIOCr/Us+Ghktk6JiQYTrqC8PEfA2hXAD2+I6E2RonFUxOl3MR7aKyrqPNk1pyXqSJBNkjGs87ArIUosQaKP9J/1rhHV5b1sEdfdZ3S0L4Tga0IkpERmGc71LwtkbMsRFMu8o6xmSr+sWB4kytyp5I2Qkzhl+bKjdCHTI/pXGKUkC19m+qo2W5l1VwRZ38K5HE5JcBBq3tdHuFvEsuzVCjQel03CNq4v2kt0mEb65CAde7ycCnbf/GC+oCDf3U7ueSZ1sndtY7dmJL2IXHXiTbUj5Xll4I1sdPTOleuwMsWNS1+KZQOMPTWLsrO3JV5F0+PXA49OtR6CH9h9q/FYWEH5kiA+1Xn9tF0D21Pu0oMpZJ9ymUQdJnxzh2rbb2jT/sn5BtuX1WudjPM2V1NOW0Y+/e2//GmeSGjFjXNYPjXss5aTE8Ju97oz9CwpOylZOj82mEmvBCDclc+P+4d3YaJisd+CIQCVzat1DtP/tO51kdJPrZJo25SEukkCAnfN2A3UaGMl+do07pcZD0yZhsn1JUMJFqHNsS7ZTaTzYxiJZJu2kq7Ro/3NsX0rIa5xLEhB1bZqzjQYtSWUCjV85dXw9/yKU4fDz82PfaqO9zOM5SdMc4Ue0pfkd4CY+skZA4455mPJaexCg/Re0+0n/n5S47+hC5/ZYrXAqC1Qi3CwpVDc7p547aRs4SGa5ZM+sh9UQaxnsEDvEkWXT7trAr8M0j3JYtJYFNvsw7b/WlFqg8TJTEDdrwputhzG+fj7L0wsd7mxrGWsVXMIRXlUxvrYJcocOJOeEbHurgguf2frFFEa4r0Om0QtRaP9bbbjOO51UZs0UeeuFAfkqpFTVUxoP8auuooFL9j6Nx9QYV/uq4zp8yboFcViSHrTOS89nt9qXjBKxwmMdy3TzLO1/q90ae48jHJegyo0W2cpCBJIUlTK8G+N1Y0ru8PTCZBplb+f28WcsJckt4VGO/k7a5QgPZCDnoUcI0P4tOf+MX+DaGI8MPmVFxbgmiPC40hdKrHay880YYiH5IrwkWReDQ9iTYtXVX7EByYFfCJeyOPL+rdNTYzzNnQJ+vUm0f/vOf7NvGeGJvpc898v6M9xINagkuUMfRwYkABrhCVnQJ6U6M7B0+nCSQ2Krk6LTtopHEOG1QYxdnTaslghH+3fo/Cf9SrJjaoxPtcRE+snmxw7io7KdMHGKI7yzGcF1yDlMVvAfCjW+0EcthxF+0EW9tkImjVPMItjsW0f7d+/8s++mFA1r1gLYemEEpLOaFCL6SWtTwGock5dedkVIfe7CwnfsRjXExW0q0ZvtNLp2HMS4qWPm5b04tP9mHf+Wd5gFhrx/X3IZVEPs9HproSxo03gsGOFumdpg8YoNNcr8W7JHt0MjOVs6lDbKxcQpuX2MjZO0f4+c/+Rd7WICNRu26x1NmR5orPOVsrPyRR9jNYhwWBy9VKbjdpPZZiKjHjL/3JjO2uicXfGscedszfGKCQRo//45/0xftNeEjknDIQLWAoCNr/frlcbW/wdwtaTmdChiZ5pK1nTodmWFlLoWEuDJtM0gwr0qToK826Qgy6QM8fUfj/GVJOOlxh3Jro0x7g9jPJokMpIg0ZUDN9HOCPs6Y3CeCUL799r5J4tuwxgPemY2ZGceArYCgEDjvXnt8lo5BGSPs++1ISYLMg/L+gxJWFVOwtl3y9RPsn4lxl1BjCeV50GBFBSaLQ2vVEGA9o/PDtpi/8ycWcXEm3nGVgAgX21cIW1Gp7JWw8sKkRt5J47IIjjh0Yy0xagEI1yVdIiepscONPYXk4R3LUKA9r8dId/tX6qpbueaZ7xDwGYAIMO53gncMoYktamKcdSbYXApmRvhSfnK96VcclLtLcZen9ZGSGlVwahl5uYdu7T/xSrx1f65O2ax7hq/w2YAcD7f/tONC9hyBpIhbxNz0zVpBDHeki9u3xMsSfWypKZ5TXmNBFwb9RiuabkJNso+7b8c/F7ZfwwEB3FDOQl4t1MEbAYAgcbvZb+uU4E61JiKEBtxRDWcoczrS6a1pSEuahO0yYKxEXTT6bGDEd6R+es2YecLr7T/6prwxv413utq4bXq2vHoSZsBQOK8mCSikrZlX22jzn9ji+ZtlZj36KHJtrHDjWIZ4bjrNRIeqaASK7T/SrBte8gH+5cgeHeM5W3M8UTzCFgPADgNUFrJgxifCTT+0IjT0jgrtSS6VuxGdiWEMV5oBNMYkLZLG0JPH6D9m1d80/avIryyNMQO85KRYi0ErAcAGu8zg19xFckc+/mvn9824ahkvrXrw9XhCF9S8kVeY1qk8rPMEbDwRaD9L4So1g1N2r98WNRing+bR8B6ABADsnjMPOfdpNhEfn8ZopOOoZuIbpdKVpYHEQ5VduQVgwcZ1eHW2O36yJ6h/WfRsHPcoP2f62vRNjuaNEDVRQAge9gNsNp5Ekkq5IrOpYYzO9rXzIyyQlmCnxrYlS45LLspOCKW/yrT/vNxsXW2Ifs/LQsUbclEuiURcBEASAfL7SDzFbN8AJ9UGu+7ckaTfeoP9n1eToKfJOWww8BrEOGp+dbQv6u0/2Z03oT9y/vW936nGW3ntOoqAFAaz+Q0z1MTBBqYl/4awb+AgIrwI1fBVxIQj3HrhdZ5RPtv1gZc27+KwcJBzap8o3VnAYB8YY1wpQ8y+8aDGuEBZ85HVvkzOUeuCUhFSld6SPIDfB8fzmWkZydp/34o3Kn9b+QHYFG4plXvNADglsBt6pbSx862/Gmc4SK0bSrYcsKxM3psS+M9/IP275fSXdp/EOFxv6TvITdOAwDZDz3Gp3oI80yRA42XXXx1hhqnBwfwiZmM8MImAjI86UInkzZ6nSqY9r9pdt4cuLT/MMK13gjeR0acBwCyAIT/EgRCjdudOBqNM1I9jLAXR8BZJxjheNvSLBdHcf6dtP/5+DR51Zn9a/ySCwIb1LTrAEAcHqukLS0lKTpdbEFjQZrKb9cgwkEXAdogwr2VmWzpg7R//xXnyv5l+6f/aHSUwyYCABXjpO9V5WyrW42hXTiXMMKXbcvSZfoyT2lbT4EsiBpiZ5dxnJaN9j+NiJ9/u7B/KdjVd3/QmPYbCgDQ5wUgYuxJp2977zkLMdV/r4bY4SI7XTDG/fWZbQcF2n879JRw6cj+wwj3tQiV7rDaVACQTAVofKE7SBaXxMVKW0l1W5wj3jkPASlprWK8aXkk4N2uFWCahSntfxYyfp53Yf9JRk6WjndvAE0GAEpKzo7Rq72g0slb//rXONbXhWW23iAnmeoirNji3xe6tH9fNFGODxf2P4jwnXJc8e7aCDQaAEiK4Aiv9clZyVCXzS/JQOP3Xa/oV9voKxKwvTI6iHFavrYqsteKx2j/rVBTLpO27V8+CKVQUW7jPGkHgaYDgIkzPGJHOr+oJl8/tlf+c97fqtJDjWdtBnDSyVoVoEHitP8GwTfUtG37Z+VYQ4oqSsaTAACBxh1FeW7rfbb3PbPIjH3LkEpmsmrZVhAQaPzKvhTNtED7bwZ3k63atn+lccIkv6S1AAGPAoBzXc8PoGIcteU4lMbZ3TGWF6iblw0gYLts7SDC5wyw6R0J2r93KqnEkG37/3iMr1RijA+VR8CXAEAco+TE72qhmj0jXGHN+cdAH5PJlLd2Q08MsUNpHLOmT43O1Qig/RuyPR/IWLb/MMKTPojZCx58CgAmQcDvu5gfOozwA1sOI4zx614Yq0dCio3a0qcs5PzIEB/ySNzarND+a0PoFQGb9p+8V4f6lRirMeX6FgBkgoBOZbCTYjzWHAbL+y4ta1wu60iSkqZjPC2LlcIRHpZFRbbqICiNx6zptGNrYmj/drv4rtm/0rjTLmKkniDgYwAwCQLOBWPc2gU1BTFusuUowjFe7AJGVWWQ/clhhJ8XwPd10yNLgxi7bJVyHmgcrYqJb8/R/u1ppKv2H8R41R5qpLyJgK8BQNqhd2FuO4jxZCqP8V+NGzeV2bODKhnlZITAJEw2RwG6sqiT9m/S4i7Q6rr9qxGuvCAtj6wg4HsAkDjMEZ6QPcRWAHBA1Nq2Mcn419N/tfYjR3jJFGzSSRkP6tIaER0ZBqX9m7K2C3T6YP+hxoMXJOaRFQRaEQBIhxjhuMxzWQHBIlHZ1WDLQYQRvmmRdS9JS6YwI8V5NB4yJWCtzjh19jm/IqcpHpuiQ/s3i3yv7H/EaQCz1pNDrTUBwMY2wfdCjW/liOHtKSnKYyUA0DjlrdAWGTPpbE2tCbDp5No88iVmQPs3+zL0zf4vHeISswiS2hYE2hQApI5UFkipMa7eIoinfwQav0n5Nvnbx2p/Jjs/0UWg8bIpszkfmP7WpH5TWmGEVu+Gof2bsrClJdq/OSxJaYJAGwOAtHNUMY4s/xCX+qpMm/PD4Rif8lVuG3wpjWcyeoep4+AQ9pjgdxDhoCmepui0tk4G7d+EZW3Q6Kv9S/4IcyiS0jYEWh4AiCN419cykrIHfaozN+O4IhzfpsgOn7DV+YluJK2pCeiScqk58/h19S9f0Cb4a4IG7d8M6r22f6kWy3/2EOhAAJA4VSmiomJ8zR5S5SnLCEVdB5D3vJRULc9N+54wtuBpjmOWZEGmkJnYoJkgL8NzW+dBaf/1LIv2n0zTnVNDZgWsZ0lznu5KALDpKDWOSUY4H+qqyxzzJl+ZDr3uOfnanKPSzlyy+eWT6sBkBcVgBJ3SNfrb0lwPtP96ryLtH0kwPYjw1XpI8umZCHQuAEgdrcYZSfrSpLO0sf85iHF6pjI7dMFF5ydOOojwuCnYbO0GaOuID+2/umXR/jecf/KOjnF/dST55FwEOhsApIGAdPIx3pLhSCk37KrIyvkMccroV+BEHpNfrHMNo6mLG5XGrCz4y9OHyUVGMupkJTWwxjNNqaNqu7T/isjR/vOm0H5SEU0+tgiBPgQA2Y4/KTkc4TUZHQgi3GJqFfg0zjJslW3X1HGo8e3ptjrzt+POT3QSRPiGSfysDHu3MOcD7b+CVdH+85y/nHu9App8pAgCNgKAQOO5ggVaZinc7XmZLtB4OYzxqBphn+y9Xo7xWakiJ/nYLz9cPhmF1DAw5fSzdGxVtitiK7bvOZ/b4emsrLaPpeyu6bUikr7UCt9jXGYbf5P0af/l0aT9Xxj2z75D8p6WR5NPFELARgAgNF2sYM0aSS+ONc4WUmrbbmrgy0fsxUYyJZlm6oUtZqbYnMlL+zf6YdQm+98VIWhbt9YKfm0FAKnwssjKWQfRRKfkss2OFv9x/eWTOH/5+rfwVS0jNLT3/C+52rjQ/o0FAMnoV4vsXxbYpj6FvwYRsB0ACKuy17r2y+/S0fra1ghPGFT9JqlwhC/J14BM2wQaJxNdaZwIY7wgJUcHMT6zebPhgyac/0Q+a2WUaeuWAgDav7EAQFncWmrD/ju99slwn1qKnIsAQBgKY0tzo746awt8CYallLvg5iDCdbLAptALK6l4NdQCkqUuN+b8I9xcitGSN9vKf19ITxbszpd2af+GAqs22v8YuuRryNuLIOAqABBeVISbk6GnDndSNjvLYIxbi+h04T1D7AjGuD/QOFeKX40zH4/xlYX0F93Q1Jy/xh9kjn4Re3WvqwjrpXDl+1Doy5b2Xy8AkB1QLbb/1tbEqNufWH3eZQAggkiBEH4hVXuRTc2D1c5Yp3FnZaPsuPNPbFzjMQYA1Wx8Hm60/+qYunL+1uzf0vRP5X6sKw+6DgAEN8lt7irT1bwOpW3XZGtiXbsztT9bCr1U4UUSGTWCu+VhzywWSuOhRmTs+EgC7b96ACCjr1kbtXlsw/7DGKs2ee4t7SYCgBTscITvWsmc1tGOsG4OANmaGcR425hz0rgt1eXC3x58+acYWMsF0FG7LmqPtP/yAYDLL3+r9h/hlZQ+fw0i0GQAIGIMInxO8tsX7QT6fJ8kJaqjeimbbBq/UOP2Ijx1dcFfnuyBxn7TOJMeQPsvHwC4/PJP3wUr9t+zEugpltZ/mw4ARMDlH+LSQYRHSi9K69sX0aF6ZTFtpKkVnYURvjnTUHv05Z9iINMjdNgVnNWi95n2X2ixpNheE1/+Vu2/hemwUzy8/vUhAEgBCiNcG2i8wc4zv/NMcaryu2uID9rEdVYQEEZ40ma7M2k7nPOc1ofUmJjJ1yInx+szndw0zmX+pv2XQavevVbsv6tZIOtBXf9pnwKARBr5Yoyx10Yp0dZ3ykNcXFXje0a4wqb82744evjln+pGadxmE+ve0qb9zwyOUpvY9h6mRunw14b9sx6AJQV6FwBM5JQ0rUHc0Nejp19hMlVS1QxUjGvSTsLmb7rPuI9f/qluOAWQP4JV1+5o/wVwbXDky7L9n0zp89cgAr4GAKmI4RifUjF+Urfz6MLzdQpiLB/AJ11h0FQlSNOlfVMbLPsrFSVdYd2ndmj/8wOATts/FwGW7YaK3e97AJBKEWjsUTGOKI2zfer0srLW2QYlIypZWl069mHYM7VT+eU2wPmOqqrt0f7zce2D/QcRXsu+Yzw2hEBbAoBU3I8dxEeTTHYaZ6p2JG19rm4iFBVPCv14OsVRRS++dX5ip1JYqYosfCbfwaW40P6349Mb+4/wUuoD+GsQgbYFAKnoaoiLZcgr1Hg27SC6/itZ/FL5q/wOIhzsHEYezHlO64JTVtsdlQm7o/3n4NoX+9d4Zvo9498GEGhrAJAVXQ2xUxLSnK9u90KXcwlIIp+s3GWPZQ5VvhhMdMZN0/DxyyfVhwxXNo1PF9un/V8IAPpm/2GMH6fvF38NItCFACALx+WHcUkY4cvytWsj8U2THWs4wsNZWascC40mZTDWtodfPqk+Ao33jMnZoemaupjQ/i8EAE1k+Evte9GvDfuXabVF7fJ6BQS6FgBMQyBTBWGMz6sRHkjKtGqcqtsRNfV8OMaL0/KV/TuZOtF4uSkZjLTrsfOXNSpGZKTj37bnnfY/CQB6aP9Vi4+V7R97d3/XA4A8hcp+4iQokIRDMY5Mtq29633HrXEiT56y55JRkhFe9V7eHCfoy1anWZifn4a6ro24toJn2j/6av+mSkHPem97e76PAcA8ZUupYvmKk/lyyZ432T9/jRQtUhrXF/0vtQ1sdKrC2zz+i16TICCI2xUE+N75CfZJFsucwKWuLUiq5aK258N9tP/McL0he+iz/dctBFW0X+zdfQwA7KhcMuLV7fTzng9i3GSK47aMBPi84GlaF1aqHmq8vzTEjum2fP6b9m8uAKD946zPtt5q3hgA2FFfcChJXLRtHjPPqZc5F0Q4bJJjKZISejwd0KbOT/QSjPBOGX0WureFtdBp/2YCANp/guPrJvs80sogwAAgA4bhQylgUaiDLzNEqHHMMJtLvgYB0vmZHPEwjds0PYvplo9Mt9WGv2n/9YIA2v8EvxGeaIO9t5JHBgD21KYivGQ8AIiBOkVRZkn7kSE+1FQO/5kYebzaOQ9HW0WAAo078trz/Rztv14A4PNWvzzbs2b/Y9yf1x7PGUCAAYABEGeQkOH6mc6tzFf/1L3BGLfOaLLWaV+2CLZt2DMFPdlmOqUrE/qvmwI35c/1L+2/WgBA+9+K20Dji65ttzftMQCwp2rJTmjCAUzTkIyHtrhuOghoa+e36/v4sI0slEJzaYiLbOnbJl3a/1ZHNv0e5/1N+9+KmeDx6SP4gE077TVtBgD21D+pYGh+IaDGOVPbAfOkbyoIkJe9TXP+WewkTW1eh1733EDjaLadNh3T/rc6s0W2QPvfjpdMS7bJ5lvHKwMAuypTEY4vevErXR9hn03OJQiQzGuVeKswDN7WL59UB0rjmA2swgj3pW208Zf2v92p5dkJ7X8GTiM80Ea7bw3PDADsqiqM8IO8F77uuUDjDbucLy3J0JuLIKDNXz6iA0kYVVefM58f42rberZJn/Y/w7FlgmTa/xyMNK63aZ+9p80AwK4JhBpfmNm5ZzqBSvc4eDlsBwFt//IR67FVYCnQOGnXOu1Tp/3PcW4xQPufg48+nwCoZQmw7L9RhltgAGAY0GlyQ+ywUR1LAoYwxup0czb+liDAxgr3tn/5CNayJVNpvF8pgFscALZy//8WG6T9z1wDRPuf4/w3+jdri5232Gif/2AAYF/7QYwnLTkIBCNcZV+C8y0McZHJIKALXz6Cu4oQ29KtlLV2olvLjdD+tzs62v92TKbfo1Dj25ZNk+QZANi3AUnoMW3cxv52nCUr1HjWBHE3o0oAACAASURBVO9tKGyyyDLUIey0NbqjIpyRhZiLeGjDddr/dmdH+9+OyXS/YiPhWRveF6c8MgCwD7d05CqGlXLDsk9cKhfal2LSQs2RgK58+Qgagwj3Tndapv6WdQXOdGq5Idr/BWdH+7+Axbx3JYzwpGWzJHlBgAGAGzuwtVBMXiIZYnUjxaSVIXYMIhyc9wLnXtM41ZW63pO5/zO5ci6e2585L5zSC8f4lFOdWm6M9g8o2v9Cu9+0/45Mf1l+reqTZwBQH8MiFNQBXJ0at41fWW1dhA+T90iKzsL7vDUeU2NcZrL9JmmFMR61oceEpoWCT01iJW3T/mn/hd8XjVNN22tv2mcA4E7VtpLFJC9WhOPuJNnakszxSnribS+4xhn58pMqeVufaPdfKsY122Q18NWf0uzq4ifaf7vtPuXetv3L6GLaFn8tI8AAwDLAGfLSsaedvI3fQGN/prlGDtUIV0oHsTvGciMMOGhUxXjdhv42aR7CTgdiOG+C9u8ccisN2rZ/ZzubrKDTMqIMANwpTA2xU2mc3ezoDX41pjT58tjVp6TmTbG28RtEeNyuBM1Rp/03h72plq3bv8ZzpnglnQIIMAAoAJLBW2ylRt10RlJ7oCPbxwzCboRUGOFaGxX/Ut0ltEe40giznhKh/XuqmAJs2bZ/eQ/aWvq6AHx+3sIAwK1eZCGcxcxxySrbQYRH3ErV/dYuP4xLZBV36qxt/PZh6xPtv53vihP7H+PFdqLTYq4ZALhXns0tURnH9DX3knW3RUm7nMG28HamUs90/Os/tQ7af4pEe35d2H8Y4/PtQaQjnDIAcK9I+QqShCClnEPJ9QKSoa5rq+/da2qjxWCM+23qKqGt8UxT8rlul/bvGvF67Tmx/xhH63HJpyshwACgEmy1Hwo0/tG6U4lx8mMH8dHazPaYQBjj6w70BNXysr9lTYT2XxaxZu53Zv8aNzYjYc9bZQDQjAFI+l4njiXG67uG+GAzUra7VVn05ERHPfr6Ty2C9p8i4e+vK/sPI/zcXxQ6zhkDgOYU7GhoDVLFj3W1y+lZHFQwwju2A4BA4/eDGLvKcdeNu2n//urRof3/YXAAn/AXiY5zxgCgWQUHGr+y7WQm9NtfW96RqmTapHCK45JrM7bpeoR9jsTyshnav39qcWn/QYTD/iHQI44YADSrbKVx/TanUNepzHh+EOGppSEualZiv1sPNPYojRMudBJovNH3kRnav1/vg1P7j3H6I0N8yC8EesYNA4DmFa4i/MiFw5E2wjFe5JqAfJ3LrgkXw/6iB0n607WKf/moLj5L+1+MkYs7XNp/8g6McasLudjGHAQYAMwBx9GlpLRsjHddBQFBhNekTUfitaIZKVMs8/GudCB74VsBjAMmaf8OQF7QhGv7D2K8uoAlXnaBAAMAFygvbsPZdpt0emBjmPuaxZx1/w4VYcWV45d2whi/5ijMVrui/W/Fw+Vfru1f3gHmKHGp4TltMQCYA47jS44ypG1msZNkRIMI33EspjfNqUPYKTskXDp/SQPNzi/fBGj/+bjYOtuI/UsArPFtWzKRbkkEGACUBMzi7VLEJ4jwhlOHtPFFuiqV2iyK5h1pKToSaJx0jjU7v5m2QPufCY3xC03Z//mEV08bF4YEqyPAAKA6djaeXNa43OVc9KYD1DgV9GBRjnz1yJemzap+m5im0y2TX8mnbsNmukST9m9Xm03av4rxJlf929VvaeoMAEpDZv0BpXHbLCdi+3yg8XInh6iH2BFq3G67ot8s/YQav5WKataNpwMN0P4tKLFh++fUlwWdmiDJAMAEiuZpOMqVvrkeYJvj0njo0mE3HFayvUnj5W0yTn2hW7uucZZb/sq9I7T/cnjNu7tx++e8/zz1NHuNAUCz+M9r3fkCtSmHKHviQ40HpXrbPD59vRZEuE6SH1lz7FN4zWrn4zG+4itGPvNF+6+nHV/sX2k8Vk8SPm0NAQYA1qCtTViGjCVb3CzH4uy8xvvyEgcjXFVbKNsEhtgRxLhJxTjqDJ/5gcBe2yJ3lT7tv4JmfbN/1iGpoESHjzAAcAh2haakUIyK3a9Wn+U8BzpxrHfv+j4+XEEca4+oA7h6EOFgEOPtWbw3cJ71F2pqnPZfDEAf7V/WE8nOjmIS8K5GEGAA0AjspRqdzOE5y1JX1FHKqnYV4eamsgoKLmGE+5TGL4vy7Oy+Hpb4LWXUJW6m/eeD5bn9H+vKGqJ89DtylgFAOxQ50PiiM+c1f0g7f+GgxjGp7BWMcJNUE7OBqpQNHcS4S+b1XeXsr4R5hJeY6c+sBdD+l5baYv+S6dJWH2DWqkhtiQFAe4xgEOFzgcZ7lZxSFade75mTKsJLgwiPBBr7BxG+Gka4Vr5azq8nUEnJ0cnwoMz1ykLDPSNcIavlEznHuFWN8MDEPl9vi9zc62/vfaL9Iz/4rveemqUpKcY1lD0rIGWjCDAAMAqndWLiIJXGmZYEAWY7F586ujxeJMvZEDusG0GPG6D9+xsESBZTfvm37OVkANAyhS0tLSVzfxqnGQT40xkGER6n83fzLtH+/bH7zT4owkvM8ufG/o22wgDAKJzOiMlwuWcr3vv1tZ8ZAWBpX2dmv9kQ7d+fICCM8eNNxfCgXQgwAGiXvrLcynBbEOG1zSg845R4zn4HKdUUVQzu888apcNj2r99G1/Uj4QRfuBQ5WzKNAIMAEwj6pae7LOVCHzRi8rrhjtLjTPBQdzgVttsbRoB2r9huy7xERFo3DGtD/7dMgQYALRMYTPYHUS4t4kKd30MLAKNXwWHsGeGKni6AQRo/04DgZNSTrgBNbNJ0wgwADCNaHP0ZKtdI6WES3w1tD5giPASq/o1Z+PzWqb92w8CJLufb1lA59kEry1AgAHAAoBadln24HqUB78zCwMlsBpE+A5X+vv9QtD+7QUBkmqb9u+3/ZfmjgFAacha8cD5+vPfUhHzBZgYcThfVe2FXRGCViieTCYI0P6NBgLvhjG+TtPqIAIMADqo1IlIkl0v1HjWhBPsI41Q43Qwxq3dtZBuS0b7rx8ESH4LJvfp8HvCAKDDyp2IFkT4xvkvot/20YlXlTmM8SjnOrvxbtD+KwQCEY5L6uVuWAClmIkAA4CZ0HTqgmyXUhFWmEZ4fmcYRvh5MMJVnVI+hVmi/c+3+zRQTmpujLBvaYiLaDY9QIABQA+UnBFRhvNUjCPpC8/fSceocUIqGWag4mEHEaD9zwkENB4bxNjVQbVTpFkIMACYhUy3z0tp0UDjud4HABqnpMRwt7VN6aYRoP1vBALyxR9EOETHP20hPfmbAUBPFD1DzCSneoRDKsa7vQoGIrykItz86SP4wAxoeLoHCPTV/gMNKde9cukQl/RAzRRxFgIMAGYh06/zMkcqqT2VxrGuBgKTr53DnOPvl20XkbYP9j95r48yhW8Ri+jJPQwAeqLoEmIOYnxGaTwk2+C6EAzIPv5Q4/ZdQ3ywBAy8tacIdM3+lcYJNcIDTF/dU4OeJzYDgHno9PzaEDuUxo2yFzhZHdyilL9SJVEy98le8J5rkeJXRaDN9j/CO7LYN4xwbVXx+VwPEGAA0AMlGxAxGSKNcMskGPiNbyMDk+H9F4Ix7l/WuNyAyCRBBDYR8N3+J+/j68EIWmlcv8k4D4jAPAQYAMxDh9dmISDbqSQ9qOQHlwIhSuN9x0HBm1IGWVbwqzGuZo7yWZrieRsIeGD/CGKclncgiHCL8GNDTtLsOAIMADquYFfiDXHR7hGuCCN8WcXYG47wsMy9BzHeqlymWOOMDOWrGD9J5jAj3CJlSLly2ZVS2U5hBGzYv0y5aZySAFtG3pJ3YIxbZVifU1uFNcMb5yHAAGAeOrxmCoGPDPEh+UqRojqy9Uq+2lWMayTdqDj1ZF/2IeyRjk0dwk5T7ZIOEfABgUX2v3wAn5T3YneMZUlBLff7wDd56DgCDAA6rmCKRwSIABEgAkQgDwEGAHmo8BwRIAJEgAgQgY4jwACg4wqmeESACBABIkAE8hBgAJCHCs8RASJABIgAEeg4AgwAOq5gikcEiAARIAJEIA8BBgB5qPAcESACRIAIEIGOI8AAoOMKpnhEgAgQASJABPIQYACQhwrPEQEiQASIABHoOAIMADquYIpHBIgAESACRCAPAQYAeajwHBEgAkSACBCBjiPAAKDjCqZ4RIAIEAEiQATyEGAAkIcKzxEBIkAEiAAR6DgCDAA6rmCKRwSIABEgAkQgDwEGAHmo8BwRIAJEgAgQgY4jwACg4wqmeESACBABIkAE8hBgAJCHCs8RASJABIgAEeg4AgwAOq5gikcEiAARIAJEIA8BBgB5qPAcESACRIAIEIGOI8AAoOMKpnhEgAgQASJABPIQYACQhwrPEQEiQASIABHoOAIMADquYE/E2zXEB3d9Hx/eHWN59whXqDGuVjGuCSJct3wAn5Tzco8n7JINImAUge+u44/+9kV8eN+/Yvme53DFvc/j6ntW8T/3r+K6/Wv4Uzkv9xhtlMSIwCIEggiPqxgw+l/jmUXt8nr3EAg09iiNG4MR7g4iHFYR1lWMN0vblsYpFeG4inF0EOEpFSFWGncGB3FDcAh7uoccJeoCAt/7Kf5k/7/hL/at4+57VvEPK6tYX1nFf66sA6X+r+F3K6s4vrKGX+x/Hk/tX0O8soY771vDDdJGF7CiDJ4gMIjwSOkOekHAEI7xoifikQ1LCKghdoYRvhxqPCj6VhpnTdvRPHqBxm8CjefUCPtkJMGSmCRLBHIR+D9ruHT/Ov7ynnX8/co6flbKwZcNCPLu3wgsnltZw34ZSchlkieJwCIEVIwj8zraKteCGK8uapfX24dAGOPrib1o/LKKXdh8JtD4/fnphBcGEe4dRPhc+9Alx74jcP6r/G9W1vBPydd5nlNu8twa3tu/hhdW1vF333sef+47luTPEwSSodoFX/SlO+4Ixz0Rj2zUQWCIHUrj+kDjH4MR3iltB6btqgw9jTPhCA8HI1xVBwI+22MEhtixso4vJE5/Df/t/Cu/TkAh/D6P/yvrC3qsQYq+CAE1hjbdsQcx3l7ULq/7i4A4zUGEg0GMt0zbRhP0BhpHgzFuVUNc7C/q5MwXBGSB3v41HFpZw3+1yunPCBjuWccrK8/jtuGLtH9fbMwbPsIRvmu8U9Y4442AZKQwAmGEbwYaLxu3hzJf7hbvDTTeS6YwRriyMCi8sTcIiJNMnOUaznXB8W+TYQ3vraziyD3rtP/eGPUiQZXGbVY6fH5tLYLei+u7IgTBCFrJynuLztc72hrPyPSGF0ogE40hkKzcX0N8zzreWemq458eGdiQ8zmuFWjM7Pxp+OMxvmKjc+bcqz86zuNEttMlW+z65PRzZA1HeDWI8I08jHiuuwjIXvyVNTyz7St52ll2/O/J9MBfd1fTlGwuAssxPmsjAJAV43Mb5sVGEFj+IS4NI/zAhs7bTHOyrfCORpTCRp0hIMl4ZBi8744/R/5f3bOG/+1MEWzIDwTUGJdZ6bgjrPghIbkQBD59BB9QMfa2bjV/zle7FXudtBNovMG8At17Z4Zv4H/InvmVtq3mdz0CsYb/YF6B7tn/XIlsJHEJYzw6t1FedIZAOMKXlMYJm46za7QlQZaMljhTEhuyhoAk7FlZx4mcr95yGfpcO+MG29u/jkck2ZE1pZCwPwgoC4ldZDW5PxL2kxPJva9i/KRrztmVPMloicadS0Ps6KcFtVvq/f+G/y/Zw591pOlCP/5u7HSYhYNgJqMla7T/dr8FBbhPUqoaHmoNNU4XaJq3WEJgsrvjXVfOssvtyELBPSNcYUlVJGsBgUkCn637+FNnlwYE03/z/IUREcFmgo8sFJRFkxbURJI+ICBJX2x04Ow03WtXtvUlufkNB3Q27KNNNCXVsARV7jXKFssgIMlukkI8qXOf/t34sr2wz3/6evp39r555+Zdy6PRtvtTGdZwVvIklNEF720JAkmWNAsOYxDjrpZA0Ak2k0p8G8luzFZ3tGAbbXL+W3gd4QlmFPTzdZG0t5MqehccfOrA5Hfe8fS16b/zHPcimtlnpulN/529N3tc9b6qz2XbTo/TX6G5in9m2WI/7b8yV+pAUpvdvNMY4+nKTPHBUgioCCuBxrktzoqO27xNx0AY49fLB/DJUgrizVYRWFnFX51f5X92c6Ff6rTS36IOMb0//S373Kz7q9Jz/ZzwPy3D9r9/JemSrSqUxN0iYMVxMCWwEyWqCD+yoj8GEHMDiFDj204UzEbmIpDk7c86qazTzHNo2euzjqs+Z5peVT6yeJQ9niVDev7CL+1/rmW26KKK8boNJyKJhloEQ6tY/dhBfFQWqNnQG2lirvNP8QkiHGqV0XSI2eE6PppkskudZPb3gpO6MB2QniviEGfdW+TZWffMorno/KLrs9qrcl6emffc1HUJvjpkUv0VRWk8lHZqJn+lPnt/UbUn+bLG5dzbX8xJm7TnPFpSdtiepkk5D4Fkvn8Nv9virFJHmf5OOast985zctnnTRxnaVRpt8oz2Tazx0VoZe/PO86eE3qrOJKnI55rEQLBCDfldW51z0lmtRbB0ApW1QhXyjbLurrh8wYDiBGeYL4AN6+PzD9P9qjnf91nnVzWWTV17BM/RTDI8lv0eB3/Qvt3Y/9WWpGsZ7YcAhdMmVNZOManVAzu7/dxfYIseh3iInPaJqVpBCRN7YqUtRXHNMs5ZZ3cvPtmPW/y/DSt6b+zvJY9rkKryDNl+UjvX8Mzwxdp/9M225q/gyjJg15o7rNMsCB5BloDgseMhhGundS0N66jMvoseO9JFeElSakbaOwfRPiq8C/BoNJQsn4h3U53+WFcIjUpJG+EBDiDCJ+TramhxoNqhCeSin2yD99Hpz/FU5KDgaWwrbxF+/8Nf7G50j91OtMOLft3ek/6m71m+3gNkoToZ5JSN6lBsIq/kuBFRi/+7qcIZf1Cup1OMhbeu4Y/lmQ7yejGOr6wso7/dc86/n5lHf+ysop/X1nF+2linpmBTxGZimAxj868axu0fya5GKwYAInaRUBFiG10skGMt+1y3n3qwUHckCSjmXI4NvRViabGMZkLlyqQtnLoS4lpyS0hQUEQ+zsFEmo8232LdCvhJJ+/pKfNH/ZPz6e/4qiy/7PnTR8LvY0iOv8g2xFt5dCfrHv4dhIUyPqHInJMO+zpv/No5J0r99xzbq2DrRlBQGlcX6nzL+CUxIEZYbKHROSr2EfnH8ZYDSLcoobY2YRaBgfwiTDCfSrCcVt2W5VuEOHxJjDpYpvJsH8RZ57ekzqw6d8iTqzMPatYly91Ww5/kS4lINi/hvuT5EfTss+TY9G1eddTTKfvkb+z51bxz4v453UPEbA2xBzhRx6K6z1Lu2Msqxgnqzoi089JkSelcacUGvIJvEGMz4QRfiCjTaZlrkqPWwTrW8j3foo/2SzhO8v5pOfT36wjmnZMZa7l0Eu2Ha7h2zKEX186cxRk6iDJh7Ax9bB4pGQah1TW9HfW9Vnnc56TlMzmJCQlJwjYqh4XaPxB5nmdCNGRRpK5cQuVGss6tER3Muw+wlXeQzvEDhXhZlt5LcpiJxkavcfMUwaTan6r+M8tX5azHFD2fI4zmkmj+L3/Il/cnkK1ha3zIwJ/s38drxeaIsjKXxVDeS77bPr3xrn9W5jjH34jIHO4pTu5AlMAQpP7pUvofsORvWRLF4XoapxVMY5IgaESnHtzq9RGkIWIhWQtaMNVaIUat3sDSksYkdXkK2v4ReJYtjqU+WsA0nuzji17vOGULtDIuz+9RxbereKILNprCWxb2EwWTa7jZ5sYZnHIO86ey8Mle33RcfY6iwht0Yv3f1ibBoiBQYxd3gPgAYOyer6KszH1TBjhSZl+8ACK2izI+pOm1wkEEa6rLUiPCCQL3VJHnP2dPp7+O+t48o4Lntv/PJ7a96/dsP/71nDD5jqBPPkFw/R/ej39nT5fFO+p+/av0v5b8/qGMX5sypFM0wkiHG4NEA0xGmp8axo3V3/LVlDZrteQ6PaaHeIiFWOvinDGFZZT7Zy0tTvCHmjNUL5nFd/JHVLOOqX0OP2dcjgzh7/zHFr22Y3V/P+zGcnttTp8A/8jwXUN/70N2xTD9Hcao+z5qsdr+K+mFkvaQ7WjlJOhU1tDohrvcy3AbMORLH9qY+jd6V7/JLOgxp1dz+YlixcDjX9sonJiGOOF2ZrnFUEg2QcvQ+9FnVDWeRc5znNgck4c4xru7HoiG1m8KNMamwFSFo8sfrPOT+sl+8y843Vg/xrtvzVveRDjrakvGJMOibmjcyxBEuNI6mSLuOfqUByTJObJYamzp8IYn28kl8AI+zoLak3BJDHOiiz6S51P+jvP6WTvKXKc76R+1rev0+89jz9fmVVLYRrvIrguuie9vgYuCqz5njh5PMnCZmkUQL6+ZG+7E0Fa1IjreX/RQzDG/V3/6p9lAkk2QseLBGVHBStk5mtkZQ3PbH75F3VC0w59+u/U8eSdX8M52Uefz033zyajAekiwVk4TeshD8dF92SvSzur+LPuo9tyCQONPTa/RIMIr7UcIqPsT7au5X6hW9GDxilJuWtUiJYSUyM8YAXjGQF0Mrp2qJnkSb6q6J41/O9tX/5Zp5R1IvOOs8/MO17D7+Qr2Fc8XPI1STm8fStfil/6K7hXPc4+t44TssXTpYxsqwICkunNZscYjHB3BbY694h8idrceTGtQ1no17ch/0VGk6x7cbv2gtNgE6XIavvcHP9Zh7PVgcx2RNlnZh2v4T98S+SzyD5tX0+2DKZrL7JYmzqe1gVLCNtWaX36ocYXpp2H0b81ztARLS1JbnujuM748pQ2JJPfR4b4UH3r6B6FpNKio10CMv3CKpkbNrQiKXXzHE32XNaBZM+XP/5FWoSnexZcTyIZmt/MupjF28bxxvRLKxIr1UO15U/LUL1V5yQlVHv8z+qOi6lAQPb29xjqQqLLLozz2zB/a9XmJ3oJYrxaiKkO37TyPP56c94/68zF6WQdz/S17N/Fj5+T7XAdhrO2aFKRcEXSCRfHdKuesjrLHmfppbpdxb/XZpgE7CIQRPiG7c4w0LjDrhR+UpdV/0rjhG18J/Q55FzQDGSbqqvdGH3OEpis+p/lbFKHkf6mTiP7d5ljDjkXtP6lpclWweNbArCsM69yPK2/VHfMElhYL83cOMSOQONXVp2UxtlW5Jk3rIFBhINWcZ18afLLv7zikiDAQWEh2YooNR/Kc9j+J6RYTKGv/yoOJ3Uwsv/8eTzVfrTcSnDvGv44GQmYxn767wzOC0cN8u5dw++4INCtbku35mSFeoTju4b4YGnmWvpAkvBnaojeRjDA5DPVDUSCUheZA/uYHTNJ+DPLmeQ5iln3LjjP5DPV7V+KH1lfE7AOsGpgdR05e9LJkKjGY84EarghW1UXtwQRGsdkmqFhUVvdvOzZt52ZURYEtrXgUlXlyld57te/Qee/Iqv9X6T9V9WRPJcsDJTdAale0t/pwGv671n35Z1fw7m2Flyqg22rnrVZJTDrtIIxbm0VMBWY3T3CFVmZbRwHI7zDlMsVlJPziIsRMElPnNN0J0/ds44r584v13Em8uzG87/jVj8z5rNloeYs3eQ59ln35pzfv45HzHBLKtYQcFFaVTKlDTS+aE0IDwgHER634fRTmvJFySQ/ZhUtZZFTfG38it33JWDbrPSX4wjmBgZFnczGfV8wawH9ppbUD5ilLzk/fW3670W6W8X7su6g3yh7Lr3MWycdle25a42znaxIt7S0JCV2xUHbcCIpzTDCfZ6bUuvYc1GnoQ9rAb73U/yJ7eHkPqf3tfViyVSKTKkkjr6Ic1/k8KdpcC2ALdWZpas0HkodjdVfjTNd3BlgO99/OMaLZjVOaikCwSHsUdpiOWGN96VaYdpeF39XVvHP274WyzqLWfeLU1nHz7qImw8yTYK39zYDuGknntXL9LXpv7P3psereP9vX+y2/fugx1o8SBa5wMH2qCS40DglNQlqMezRw4MYu2wGTZLAhjXn7Src+lqYCLFdCZqjvuXrv4hDmHdP3jXWnLeu3M31AKnTztPDrHMFzu9f6679W1eOqwYGEb5q05FlaQcaJ/eMcIUr2Wy2I0PzWdlMH388xlds8k/aGwgEMZ40rbuUntSEuHTYzbwAm0VnFjmPAo4i7yt0/zr+kjZqH4GFazhEf0V0mHfPGs4yL4B9HdZuYRDhqbTTsv0bapzuQt50m1n/uN+/tkkXJiDrOGxuDexqZszNxDJ5Hf8ipzH9zNT93O9f2Hxr3yhb9lbSwkHTekmDu/R31vU556UyZG0mScAuArJi2UWSlM3gQuNMmxcGBgdxw6YsNhZRjnClXY2TehYBmyWEwwg/z7bVheOk2tycTj/vi37LV2SeQ0nPcR+5cxORhZZb9DOt2+m/U13J+XnX5L41/MK5QGywPAIuC9mI8ww0fi9tlue0+SfCGD+2FgBoPNS8hP3i4NNH8AGZnrKoU9UlREsn/pl2EtN/ZxzK/jUc6hJWbZBFiipVHtHJ6G5L4JfRMRMDtcEKlpaWnO0K2PrVvLcl8CRsqiF2WnMUMdD1leO+6lqG6q3pdYQHfJW7LF//Zw2XbhkyznT0M78GZzmJ6fOreF/ol+WJ99dHYGUNd85y4DP1Krqfpf+MbmW9SH0OScEJAirG69Y6wq2OH5vtRFj/2EF81ImANRsZxLhrk+9Z8lQ/zyp/NfVT9fFJNcdTVnSrcaIqX749t28ddyed/qyOP88pzLs34ygkQY1v8vaFn0lugN/NdOizdJjVX/Y4e/8q/rMvOLZezmRRVGRxf/QM5yiLA9uQNVD25ttwEklCIY1ODRW37WUIxrjfhm6FZqjRiWx2sjd/y5dittNPj9PfrBNYdMy5/8Zfl821AIt0Jdez//P0nT23cW8nvHMEowAAIABJREFU7L9xJblgQByxrY5wEV3JoOZrJUHJm7CI/8rXx3jahW7ZxmwEZPolWZsyI0itrNsNeq3/upUtXQudf+oYsg6g2PEzszXDKy4QkHoLpfU7S7diB+k1+eXojgsVmmvD5tfQoo5UkhP5OBpgs5BMEOE6c9ojpaoIhCM8vMg+q1wPNH5VlSdfnltZxV9tfvmlnXu2o69xvH+V9u+DnpM6AYt0m70+T+dy7cL/1tu/D/pxyoMa4YkqnZ2xZ8Z4WjLuORV6TmPWCv9o/HJOs7zkEAFJWW3MfqdGEtqyzmUW3FLlrfQc8TwHkTqSVRyf1SbPu0Vg/xr+dNNpp/qZ1mHq1GddT89P/bKio1td1m9tiB3nv0xfsNUhFqEr2dQGEb6zNMSO+gLVo2Atd3yElXqc8WmTCCiNY0Vss+w9QYRbTPLpmtbKGjYWiU07hLSjn3d+3rU17HctC9ubjcD+dbw+Nwgoou/8e/7X7FZ5xUsEZD4+0HijbGdn+n4ZQg3GuLWpQEASF5mWSegli//GuMxL5feUKTXCPhu6DmM82lZI730eV9f6+s93CMk8MUvH+mUVK2vYvzl/Pz9wOzc3UNj+7D/5JSm5KYSADF0GGr+x0SmWpSl8hBq3Lw1xUSHmDd2kIqyU5bXQ/RFeMsQiyRhCwGKZ5zcNseicTKHtf7OcvDiC7c4gdR6s+Odcm/Mb3PevWN4MAGbptMp5bgecD7zPV5NOMcZbhZza1NynlWc0TiTJW4a42AVutub/z1f9+5Zt/ier2+8IIhwSOcIYq/JfjuWc8OBL5UF1AFcPItybLMYb4YlkCkrWgkR4JNR40FX2SGtTXy3d6rmyhn/adAqznflsRz/DYTBXvO23vxr9ZLtnGrjN0/cMvc6yFWYFrKYPL56SSn5Kw06ylIpBg6wRUDGOqBjX2ATJ1rywzYVhsmuhTN4CcXrBCDfZxDGP9uWHcYnsOik8yqRxJtD4x+CQvfLSsu7ERuDa1nUAybxw2tmnvwYcA4f/896I5s/ds4rvbDpxg/peWQfXATSv3uocSBAQjPCOjc6xLk1ZqyAdt/F0urIYUuNcXf62PR/ZWf0s6xWCGK9ua69gkDXQOBqO8anqVlLwySEuUjHuDmKcrsJroPEHyRthY/RC5K/C08JnohbWSB9iR+n0v0WCA67+L/iiuL9tZRV/tjm/X0SXBe/Zv9ZC+3cPv98tDg7gE74GAdIBi2MIR3g1jPCDj8f4St2a7CLvwo69oHOdomM2OYwEKiPoqTYupFwuwaMEPDIUb8sSxWmLjozwGuP0cozPGuV1iB1Wdn1otC7hTaGtYVW+EpkcxqjJmia2sob3NkcBCjr4hfevtc/+TePaCXrLB/BJn4OAbY5F45gEBLKAMFnRfwg7iyrCVgKgMMI3i/Kw6D7ZrTGI8NQ2uUs4/bxnZZ3AorbLXk9sx8Z6kgg3l+Vl3v2hxrN5mNQ6Z2nUZ54cda/JsO3Cjr2Kg+BwcF3VWH1+ZR3PzVm8eSHTXxndc9THqs6cEpc5WBXheK0OsaaDqtW2rGeI8JKsIQgj3JfM+2rcKdsNZS48jPDlMMbnlcZjtdqZIaPJJEfWFq1JHvsIT5oyrN2yjiTGuzbwTGgaDAJsbQc0hWVdOt9dxx9J9b3vPYfLZHHW936KP5Gv/WTL3yr+TLLzfe95/PnKKv7ZqCOYOAxZbV5XBj5vDwFb2wHtcUzKzhGQBVyyotxahz7Deba+PY1TppRlK0DJYiyjJ3X5lWF/pXEiS9f4scZZUwtCg4O4wTh/Ys8jXFkXyzLPi6OX1fYrq1hfWcV/bpnbFWe86H+V4f2UZt6zcm4NvysjA+91j8B9a7jBaOA3sYV7nsMV7qVhi1YRUCM8YKWz7GgAEEb4uQmFWK1jP4V9GOPrdXiejLZUWpNQxrZkUaEEpnV4lWeTyphTGJThY9a9gwhfrctbkeeHL+IiWc19zzreWejkU4ed/qaOO/2V86aON2j9oogMvKc5BGRUyJjOs7azir9qTiq2bA0B2aOtGiglPKuj9fm8iaxwSZbGiivoq2BTp6BNYhsWnOksOWQxpAlDn0W/1vkR9pngbR6NSeW+X2z5gks74aK/08GAqSBgDeekrsA8/nnNDwS22E8V/ec9w9TPfijXBhfJV5OlXOq1Ol2HzqcInyZW2DdRsVFGHErbjayod71WROOsiRwLQWQ+DbaJ6ZR5Ohi+iItXVvHvW77e8px5em66k87+nQYL2XN1j+X5dfzdPBl4zQ8EVtbwH5ujR4ZsYf8aDvkhHbmwgoAa4uJJch7rw71FnK2P95hIuNPELgzJtVDWaKzNpS8I6mRhZ1lep+9XYzxt2n5MjP5M85n9O8nal3XSaced/uZdm3Uue97UsfDxPP46yzOP/URg//N4aksgmWdDYhdlbGMNrAngp7rNciXb5wKN35vuQLtAT7Yi1kH7/Kr/68rikGxrO4Cr03YHMT6jIqyXpXN+0aFKaRT5lWQ9ZduQIfxsgp9kZ0bJrYOSZ6AIf/PuSVISLwg0ysom2zXntVnn2v51/OWWDrtMx5x25NlnZnX4dc6vA7LDoI6cfNYNAves4h9KjQBkbWfGsQQVbrhnK40jkKQPjvBK2U6y6/fLXvg6ypFh5MIYaZyVLY2z2pN8BIVpxUBSnnkWsZzzgcbJwvQ1ju2KEOSQSU5JTYDCtITXGLtm0SpyXkWIy7RX5F5Jz1yk7Sr3rKzieKkOO8+RZ8/N6MRLffEJjSydNZyTrYZV5OMzbhGQzH21A8qsPW0cswCUWzU235qt3OpFOlwv7yn5FT2twTIr6ovM25eqdjjCE9P8zPpbjXFZGfxlDcksWun5IMJrRWkGcb3aBrJWo2hbJe57PZXF5K98VW9xtFmnW/Q4x1nXDiim214HJOeASdlJyw4C+9dx3xab2u7MtwZ307rOuV/qStjhllS9RiDQSeIgSbzT+7UBdesVFF1UJ+sEihiFbJsrrJcIrxShKffISEdhuhqPFaErBXUK04yxtwjNWfcEI9xdoq2idm2lLPD+NdxfylnP6qyznfase6qczzzzty/iw7Mw53l/EEiKAonepv9nbaTsMcsC+6PgJjiR/eTWE8J4HmTUxb3wAsASuecDjZcLObsSSYxKLQDUuK0ILjKsX4hPqQsR1VtxrDRuK9pWifveLSJn2XtW1vEvW77WMg639nmTtNZwTnYqlJWP97tHYOV53LY5BZA6+vS3qk2s4T33krBF7xAYxLirsCPz3KGX6PyTr8S6yijaXpkFZ0rjmSJ0ZWFnUf4l6U0RmnJP0VK5k10mxb62C44qzJKn7PqIorLOaq/O+f1reGGzs67aOctzDp6tIyefdYdAUgcizyaq2EjmGXcSsCWvEVCHsHMQ4WDRjrMr99XNVFd0BEX2sRc1gEDjN0XwlfuK0pQqfUVoJveM8EARuuoAri5Mc1wvIZCNTItFp2WKYJG9J9mylddZ1/1is0BTEhVleeexnwgkKaQzjrtwcDj/mf/2U1py1RgCkwRCVoruFHYWLkcZxrisDtgqxtGickk540VtlXHUZdIYy4r+onzKuoZFfMr1MjsgZA6/CM1Z96gYewvzX9R+NE7Maq/O+WTLlg/Ofn7nf06cyL1r+OM6svJZNwhsWQNQxrbm32vF/t0gwlasIiAOI9k3vlHUpdgwb9GO16P7pJJiHSDVCE8UdUxFtp0NdPGAomyJ4KJ8yn0yLTQPl/OJea5WJWzj4zG+Mo/eomuSTKgM/0XurZJMaRGfcv38FsC/2TIFUMARF/6iy3boRenOuY8FYYpotPl7koWlWd0XORa9z9G9ZBdsXjJy4DUCaoidSYEh29XjGgoK6uYBkMQ4RZxNek8Q40mpHTCtdME5jPFCel+RX5kXn6Yz7++y1SJDjW/l0ZNRirJrRj4yxIfyaBU9ZyMPgCy2LNp+mfuSFMBrOLug802+wGvdU8QJLLiHeQDKaLa5e5M8APOd+XZ7WqD7lTWwEFRzKm1fy0khmRJfvEWcWNP31M0EmJTWLRu8aJySzHbJwraN1e1HyjpUwa3s+oUq8+hBjFclAJQveDXCvrJBRKLfEjsgZr0VNjIBiiyz2qt7flvilkWdcdnOPe/rrgINZgKsq2k3z688j/+bBItFdZy9b5btrWLdDfdspVMIJHvVxXGN8XTbUwzXTVAjiq3kFMsGDdP3j/F0WaOSojyNBFwRbi7L6/T9NmoByGjMdDum/v7uOv5oZQ3/VesLP9uJFzme1dHPO89aAKZUbpXOyhqe2TKtNE+n07Yy/feFZ//FKtMk3n0EZCuYbDELY/xYxXi3EQcz7RxL/G2iGmCZhXum8Kk6dVFm4Z4JXk3NsyuNX5rgJ0tD0hnbfENXVvFnuV9tsztklOrkp+lM/32ho99Kd+t9rAZo0wgM0V5Zx/+bG0xu1enWuf8ZdsBS0IaUQzIXEFAa10sBmUlxm+K550s47WwnXve47EK6C5JuPZJ9/nV5Kfp8HZ5lysLlqM282gdbEZz/V1FsytwnZZznt1r/qlTbW0nXA0x30jM65i1BQJVnFtHNXl/FP9eXkhRsIzDX+Wf1mR6nv2I/M2xIFhba5pv0e46ALG6TLHThCN9VEX6kYrxeppO2fa+JSnWiYqnM52QERONU7cI6drLqbd8pUqJWwbzXZPcIV1ixAwNTE/P4Tq/t+1csr6xifYtjz3bQRY5ndOKzOve557O0VvHvKZ/89RMB2amR6DOrt3nHci17fZZ9reJv/JSYXHUegSQ3fYSbQ40HJfNdstgswnGlccpKZz9rhEHjjCmwVYxrymyNKytnoPFe1aH/aRmTUZpZmJg5f1Smh6bbrfJ3mSyGZTA1hWVRmZJsbmv4XanOPO28099sx27ieA1MBlNUgQ3dt7KKv5oZPM6ygay9yD0593EHSEMKZbPVEJBV6GU6+KL3Sqnkahxtf8qWs5JhexlJ2d5i9TOTEZntX+51AwCNYzLyU52zrU8m21Dr8pT3vKEAZSu3i/+6Zx1X7v83/MX5qYH9MgybJHlZw51J/gDp7NfxBVk/sH8Nf/p3P0U4XMdHhWrpZDA5nX5e8MFcAIt11uQd96zj7zcDgKxjL3Occ68sVG1SLrZNBEohMND4YlGnXua+/7+96w+R5LjOy6EIkQTFGCWRT7c9bVkIYUIwShQIBCcxxg4xdiKjgGNBECYKRxCHrESa2ZM4xiSe7l45ORAm4SBYNjYE2fivcEzP6cRJhMQEK5iALkFczEk4kdAJcSuOcBzm+LJf79bsm9runp6Zrp7+8f5Yurq6frz6Xu181dWv3pvn9GYhIRl5j+fkI7y7iAx5Zb0I/+uN8NFF5ShSng52vAA38/pf5JkX4GxZb/5Gfno8XESGImW9CD8x7Tfl+kyMT06JoAi5p/zoH3oT3GvneFMw6KKcPK8/XbhRX0V0b5c5fK9eALs4mZo85qXO3Ke9+Vl5Lo6DJa53Q6wccrkX4J94fM+l3hgVspQFS8EYAouMhU6TihD6omW8EOcXkaMOZem3f0oExcn9sIMYSQYxbjJ2QR3GpzIcRmB4EbcOxrgxQ/pFdD+nDANWHe5NcxSBmiPgRyj9ZIGroDCE0o/wh/StvzBBBbi4GeLjVakjIdoRvkI7g0VkTXYPQnxrVcPErHG62vWhY6GsPuucP/UtIEk8Kz2HBMxiYmuC9+o85i7Llnwqon5tHdv3RXQtyjBeRZdx1bE3FAFXTndcG4T1AnyCpJPn8c8L8DbP6a/qnXAV1X5wiNvp3jjZyrd2SqyFwQ82QzzB4FGr9Devrr+NwOq3FJsFekWc13cdnycOYYr++Bcpt08KahBWR21vbGR6lBRkvtBnof05weiC9RyxSqUI5CDgynqd38Jzui31EUMvMwgRbQUSe4EAd5N4S+2kpMb4+YH2B1yUMACQqzf9LHFdOADiguJYgHuy+qxzfmIQxh9x87ciEZh29Ex4PbU+GOOy0dEM0a+ofzX8rKe+Vao5CHgjPOTojfDSnK71ccUI9LZxvwtd7wY5+p+Kh1Jad8mRsP23uCkx2PfLLQp0/pempXIa4q5MouM0fablFV0UxHirHAm1FUWgYgSOfg13lGm1LgmGb+MVD0e7y0HAldviVTwp5ohbyaPEEND8+NvXVRcCYzxQySC0k0II9GOcni7yjK5X1THbUe+PhfDXQjVFgGFcJXGXlfZCnK7pkLsn1hBHnDmFCvBIkwFNjoVJQrBJwb6XZXPSJJwm49Iq2Yc4MqDTqBx9Lb04ONfs+d8qPetgFkfADzEoi/Rn2gnwzuLSaA0XCNDp0Yxu8g0SFzIMdG246AIP2SYdCOX++C9LGjGuyH40vT4EEp8PXMgtuZibzo+U+nRNvb6Rac+KwIoIJG6ESyQESTS0gF9RPK1eAgL0fyD1UlbaC/DjEsRbaxP0EJj5ZphGGikkMCUIe7Ggb4dr1a3pfDDB2Uwd2zpL07kpY65mDoxx2fShV0WgsQjQO15ZpCDbKSt8bWOBrYHgm1/Fr0idlJlu6vl/Wy2Jdbj9425+5G1CSCuXVXaC/7T70vtqEUgWeLYOs/WVv0tgtzPGmWpHo70pAg4Q8COcKZMYZFv05+9AZG2yIAJ+hH+U+igzvU4fCwWHX6gYHblkvsXbZDHv3l4gjPFgISG0kBMEaKQ31a2tO1tXCz7vj/FbToTWRhWBKhHoRfjdMolBtsXIhFWORfs6QIAulF2d8mjD9r9Bij/kCUmkEQJJwfylPU/Lk0SiIYINzJVfGfxpuvWfpSepq0X0rNv/letTO3SIAH/QJXGXma7SDa9DiBrXtOOdnZONAyRH4N3oga9nLgLyyKMAgTx5Dr+d07U+coTAYIwzmTq19WZ0bK7288P3TzsSW5tVBKpHgN77yiR92ZbuAlSvz7tGuNcL8FOph7LSya7CNu6sflTuekxOAxT98TflzFWSQ1qe7gK4U1xGy/TON337p36kjvLSaWVTyp+M8aGMrjVbEWgeAv427nS1XUziaaq/+OZpck9iV/4dEl02MPrfPD3+xQXcMSWMNBK3SUDey/IyX6ZjaJjgeUoo8fmMfwepn3nptOdWnkb/K1FR2lR9EHAVHGj/zfMqQxDXZ7TtlYTHL8t6209rpxfii21Ej6F8c7/3zxL6QWhg5stnaekYO1+Odf5XMW8G5/DIVI9FdDOvjK3PCR6uYhzahyJQKQJe5CY2wJREAnyz0gF1sDMGR3Lm9Y/+IgK84w9xWxuh7U/w2blEbshCkoL1hjglH5m/V/75NuJWpzHtu3c+8PondbBserbelb+c4OfqNGaVRREoDQFXPgHMIqAX4jOlCasNHUKgF+J7BmsXVy9A/1CnLcoYTPBmoUWAJAW5GMhK75fnIqNFcNVuKNNdHKmfRdO2Dnlv8uJ2z//aKVQFqhYBP8LjLohDtHm16jC41SK4vt5oZyFwXsilb8F6V48O8bPrG6H7ngcxjqe+wUsSkYRgiMHOs/PNfYwddR/rRo9bMR6dEvU8fUh9zkub5zF29O3fje601ZogwO1dL8K7BQlhOZIJ8W8bQxypyZBbIYY/wn1+gOsu9eZt41QrwMoZxPAibh3EeGtqEGiI2yYUQwp2foHyWxOd/zkqWOrR1gT37Z7kuD538Sb1tmC6H7d//i8FvlZqFwL+CE+5JJKk7W0E7UJtfaNJFm0BLrnUmRfg2j3P4fb1jbK6nrfGeGJmAZBF6kXz7UVCjJv9GFF1I2p3T8MLuG0wwSUnb/9GxzGu0b6g3Ujq6BSBjY0NEoof4apjQrnZVmvySicRQ/2GmLjUVdcWbAmhMHys+fG3Cbxoviwn3zYP8tWafNV/Fob6HWMys2CTWBdJH+jj4Fs/88yfLthW1ZLWbxoCmyFOOieVCOiN8PtNw6ZO8vYifMO1nrwA/3f0a7ijTuN2LcuMY6AiJJJWRuZJkhH5/RfxaddjaXP7gxjPS6JeKi30kbqQiHFdj3C2eRbp2A4h8ItD/Lwf4e0qyKUtQWUOgeg4wxshcK0ftt92y/80NdHYK7EFMG+BksCLpmU5STKz+de3xvjNNBk0Lx8BfkZZapdG4s+0+ZM6Mmle1fI/XxH6tJ0I+CG+UAXB8HODN8JH24mim1F5I5yoQjdJ0J8hbnEzinq3OhjjwekboSEEmzyK5NsEY9eJscOwtfVGo17SPTXBiaXI38Y+T598thv0Z3ihm/O/XhpXadaCQG8bF6ogml6Ad/1tfGwtg2xYpzTSdOm2eUbfAX6nYfCUKu7K35cN4ZirWQxYxLM1wXsnz+n8L6K8mc8zFo7TBZvBWeKelc5qI8ZNDeRURCNaprUI+AF818fLDOHQ0tzvOOHMm0i9Ef7O4OX66kX43jx52v6cZ/aT42WSPLIIIy9fPpNtmTSvMa4p4eTPqME5/H3ulv08nOXzvPQEoFOhfGn0qSLQAQSqMghMCC3ADX566ACsiw1xiFv8EV5wTfqmfRr+/fKz+KXFhGxn6eRYoCQLQ9oyb9U06/NvjBu7oYn/uJ1ILj8qbsMPJvju9A2/iA4MpkXK2mViXB9OdP4vrzGt2SoEvAAXDTlUdD3RKgBXGAwNMqv6FGN020XDvzwV9Sf40fTN0yZ7+94mk0Wf75V/LE+eLj1LDDIneHkG/0UxTdNJVhssq4Z/XZpiOtZ5CNBIr6pPAYaEdj8/fLPtrmfn4X7sq/hVP8TrU0wYkMfxX2+EH6qnxlnNPPkSPpK8nacRSVqeTS5F7u0yMZ7vuutZ2kXs7oi8fujNfxnMi9RhmTFeVcO/2fmvd4rAhh/guGvysdvvRfjv3jbu7yL8SVwGx+59bbx5IkNjNaTPtpkws5JMDhP3QahgU85cs8rK57NlLnXVOHDfI2O6e99ZjDBdIMh8iWnRdIydkzE+lD4DNFcR6DgCmyG+n0Iabt9KaRcwwlNdeSvlt/dKvPul7CRsBvhUx6d47vBnvkNLsrHTafd2niQl+czOp10At6Q7Ej+D395nTl9IPEzaXCVudpr3dt6ceuqYKXf668OuI8Dv0V6En1S+CNjzGvjDVu8GDHFkM8KfeyO8tw58N0M82/X5PW/8iZvgMS4vSiypb6iSnCQxZeWP8WqrdwPo1jfGYzwSOf3eL3GRaYkR0/a9KWuuWc9Ffj/G6Xn61+eKQOcROBbhN7wAP10HSSXn30N8q20W6vSG6IWVG1pOd270u3/xf+v979I3MklHkErhMrKOJC2Zz/Te/fNts1CnN8RBjNemCyWJQVo6LU9iJZ/LfDtt7ne/+3dlh6X4TNeSikAGAr0AX1rHAsD0yWNqfGP1h/hAhoiNyKbzo16EsRnXOq7ccbgrwrFGAFYTIXejzz2ckLEhEF5XSWcRlsyfTV+nK9ym+6hPFlMTnJ1iaXDMw9KUmcXjwO7Cfp5VzuTH2KG/h5pMLRVDEWgGAv52Nb7oc0kxxPu9EM/w00QzUNuT8u4R7qWjnco8+qV87yeuyUIqwq83Cbu6yLo1wV9NicuQyTziyion68kyNpnJcnvpnf4EzzTttMDWWdybaU8hxy/TcuwyPy0t8/IwjHFtMMYDdZlTKoci0CgEqnROk7cQSFwJR3i87jHr/RHu80J8O28sVT7znsUnGzXhaibsYIzvTLetJUEtkzZEJetKIstKTwB+N6fVfN1j1m9NcF+CWdpY5bhXTcv6EjeZPwGeiXX+1+xfSsVpEgK/dgY/4wX4lypJK7evANd5UqEX4fOUrQ5YJlb9ER7nd/Zc2TPe0l3U4c4DMaoDPk2WYXgRtw5i/GspiwBDVOZKsrIIK7UfWX6MG3Rhy0BGlK0O2NJeITnSN8arM+ORcpedlu1JDE0+r7sY1QEflUERaDQC/A7PqHEuiGqlNgO870c440V46Njf4oNVgkzHSbTo70U4v9IYHC0KvAB/ViUebe6L3+ETZzWGsCXhLJOWdQxhyTw7Le9ny+8MxjgzOIc/qtpWgNENBzGO92Ocn34moZzyz8hqrnIcq6Zlfdm+yY9xvM1zUsemCFSKwNEQnh/hjTqSnZGJVvYMpuON8BC/wZcFEO0PeDKChM9PIus6xmfGOe9Km4myxq7t7CFA5zEMHZv6hm5Ih9ci6TTCyqtrl7f7OKj72tYYX+eCgN/gy9Jd4qp3jAd4hI/f9VOP8RkZ7euBbAdGfKaMPY5F8mVZqw/aTJQ1dm1HEVAE9hHgVvcaYgZMj7LNI76054mnwQjjXoi/2Q96dMIP8AgXCX6A32N0wg9H+BwDFPGteTPEE942TvUifKMX4p/9AO+ktVvXPCV/d/+uiQMbeZRtGQKzyKrQgkL2YxOfuTdX0/7B9RKd7vAM/GCCpxMSP4dHuEigUxxGJ+xP8FkGKNqK8WhiZxDj1CDG8/ufPq7MvNWbdtP6s/Py7uWzRdO2DLL+BE+7mwHasiLQcQS41e4H+I+6EmBX5aLfhl6IL3Z8ejofPo3w6Eu+EHHPEtOBO9usfBKbfGbS5ppPfLN1Tdllr6bPrKuU1ZSZlyefL5OWdew+9+4fdj4BtANFoOsI0BK/TgZvXSV9M24e9VNr/+r+K5MtcRoGSkJylWa7sm1JfFn5psyqV7vvovdp5YwsUuZF07INWTcG4wl8oroZoD0pAh1HgFH8vLCeBnCGGLtw9SK822r3yTX9P0sWAcbBjSSmstKzBHfw/TwvXz5jWv5JuRbJl/XS0kXzbNnS6tll8u5N/RhXWu0+uabzX8VSBBIEvBDPdYFo6zhGL8Cl3ZDKvk7F9SHQ5/dyQ6iGlGzicpFv95nWh8kzVylXXp58JuvYaVsG+Vy2sWw6q57pd4zLT7+E3vq0rz0rAooAwwg/sq7YAXUk5ipkonvhpnlHbOu/Cp3NDGLszGzVSzJ0kc4iR5lv92vfy7IyLcvJ/LR0Wh7ryzaKpu1y9r3pa+96tmneEds6/3VcisDGZoiP1/14XBXE7LoDgGqDAAAEZ0lEQVQPOvjhaQadcvVCgG+iSbAbklYWcbnIN6RYpO1FyppxFGm3rDLF5VNL/3pNf5VGEdjY8E7j7qYdE3RN2GW2T3fIauxX3/80vpH2J/iHVEv+skjSbof3dl4WkRYtZ+qb66L1ipa3y9n3dv8xdtS1b33nv0qmCGzQPa8/wlf8ADfKJL+ut+WF+PfNCEd1itUfgeRcfYwrlS0EbKIkkc4j03llZH0X7ae1mZa3L0d/gh/RGVP9ta8SKgKKwEbiKjfAD7pO3GWMvxfgr3VKNQsBOg1KfPZLInWVdtGuJGO276IPu037fl8GRmVslvZVWkVAEdjYGOKIN8IJL8C1Moiwc22EeMULcLdOpeYiMKDXvaoNBDOItDCJs75sw14MyHu36ZcZXbC52lfJFQFFYCOJIzDCC50j8GUD/dD9cIgv6NRpBwKJgSDDCktSrWNayiSJPStflikzzc8nE6hXv3ZMfx2FIrCHAAPqqAdBZMY24FFKL8RpPd7Xzv+YAQPq5LkRlkRbxzRlsuWy71dcCDBmgR7va+f811EpAslnAb7d+gHe1B2BvcUAXfkyiiF3SnSKtB8BBt5JIgvahLoieSbkXDIhH2qzbBnZHl35jnHmyZfwkfZrX0eoCCgCG/4Qt/kjPOUFeLvDC4GrPDHBAEs6JbqFwPACbtslvv4gxluZpwVck/ky7RetU6RcjB0a+H051vnfrdmvo1UEDAJDHNkM8Qf0bEcnNx1ZDLzhRzjBRZCBQa/dRWAwxoMM2TtdCJi3bHMtQqZ1K5MlO+Uc4zLDEnMR1F2t68gVAUVgBgFavG+GeLaNHgV5EsIL8e3NAJ/i6YiZgeuNIrCxscEt8H6MKDk1kEWg684v0j9J/vCC5NpgjO/Qkc/wAm5RhSsCioAikIoAnQn1Inx+M8T3/QDXm7orwB0NRkz0tvEnjJ6YOljNVAQsBIYXcSt3BRI/AmPcSCHTg+iARQg5q8xhkp7fbjq5H67HPmPc7Mc4z6OQathnKVlvFQFFYD4C9zyH23sB/rS3jQuNWQiEeIX2Df427pw/Qi2hCGQj0H8Rv7AV49GESA355hF33rOshYDML1Jflk9Pv0z7BvXcl61XfaIIKAILIkBXuL0AX/IjnPED/FdtFgQB3mRY5A9H+Jy+6S+oVC1eGAESKhcDtJjfPUnw+tRmwCwM0skYM+XmlZn33O6L5WO8tTXG1+kCWd/0C6tTCyoCisAqCPhDfKAX4jN0lbu/Q1DFiYI3ehHOcxHSC/DYXSPcu8oYtK4isCwCtJ4n6dKSfjAB37pXP1EwbwdgjMvJbgQXITEeU099y2pP6ykCikDpCPANvLeN++lrwNvGKRre+SFeoQMiRir0AvzYj/C2H+J9s4NAo0MvwKXESVGIiT/CCzyXz4WFH+A4DfeOBbindGG1QUWgZAT4Bn7yHD5GXwP9GKdoeJcsDvYcEL22b4HPhcLO1LaAae4osAxPI0zwXe4y7BskHu+/iE9vndWF7v8DSeRRgSKeEuAAAAAASUVORK5CYII=;" vertex="1" parent="1">
          <mxGeometry x="570" y="187.5" width="85" height="85" as="geometry" />
        </mxCell>
        <mxCell id="XLbjQa036LFI9UmfvoyX-10" value="" style="shape=image;verticalLabelPosition=bottom;labelBackgroundColor=default;verticalAlign=top;aspect=fixed;imageAspect=0;image=data:image/png,iVBORw0KGgoAAAANSUhEUgAAAgAAAAIACAYAAAD0eNT6AAAAAXNSR0IArs4c6QAAIABJREFUeAHtnQuIZVeZ75sgIUgYLiJhuAQJIiJBRAaRi0goMjn77OoxIchERCQ0OnbXXqc6hCASREKJiAzhEmQYLiLSiIhMQtLpvXZ1DCLFMIhcwhDCIEOQUIhIkCChkRBEQt377XNO96lT57Ef67nXLxDq9Dl7r8d//b/HWutb3zp3jv9AAARAAARAAARAAARAAARAAARAAARAAARAAARAAARAAARAAARAAARAAARAAARAAARAAARAAARAAARAAARAAARAAARAAARAAARAAARAAARAAARAAARAAARAAARAAARAAARAAARAAARAAARAAARAAARAAARAAARAAARAAARAAARAAARAAARAAARAAARAAARAAARAAARAAARAAARAAARAAARAAARAAARAAARAAARAAARAAARAAARAAARAAARAAARAAARAAARAAARAAARAAARAAARAAARAAARAAARAAARAAARAAARAAARAAARAAARAAARAAARAIFIERurwk+cvHd63W5RP5aq6khf66Ob/qroi32cT/Zg8I/9H2k2aDQIgAAIgAAJpIzAqqodqQ6+q41zpk27/V8dZUT6T7710T9po0nsQAAEQAAEQCBgBmeXXBruX0V/tLGRKvyorBDgDAROApoEACIAACKSFwK66/qgY6G6z/NUGf1NZUpfUmRbK9BYEQAAEQAAEAkBg5/Gr/6Pet1f67U3G2u5v1TGOQABkoAkgAAIgAALDRyAMw7+8alAdy/aAtG34I0APQQAEQAAEQMAhArL3Lvv7mdcZ/7LhP/1vaZusSuAIOCQGVYEACIAACAwTATH802j+08bW7tJ+v7pwBIbJRXoFAiAAAiDgAIEYDf9qp6S6wskBB4ShChAAARAAgbgRyPf1Tqb01dXGtN/M3G+ZOAJxM5PWgwAIgAAIWEFADH+dma9z0p5YnIPqiuQrsAIihYIACIAACIBALAikY/iXHBRJRbyvd2IZJ9oJAiAAAiAAAkYQkPPzuYWMfX6X+ZeMfJPVDBwBI3yiEBAAARAAgcARwPCvcRIKfURSocDJS/NAAARAAATaIVAn72HG3/BCIrILtmMXT4MACIAACASHQJhZ+9bMwJss1zt9BkcgOELTIBAAARAAgc0IYPjNORkkFdrMNX4FARAAARAIAIF58p6Q0/VGFyQ4W3XAEQiA4DQBBEAABEDgNAJzwx+rcY2p3XNHgOyCpznIv0AABEAABBwigOE3t9TfzQkhu6BDulMVCIAACIBAssl7nAYBtnEucASQShAAARAAAYsIYPjbGGUfz1ZXyC5oUQAoGgRAAARSQ2BUVA+lkaffh9G2UCfZBVMTUfoLAiAAAmYRIGufBePschsBR8CsQFAaCIAACAwdAQx/5IZ/ycnIlH6VNMNDl1r6BwIgAAIdEZDkPdlEP8YFPcMy/qdPF5BdsKN48BoIgAAIDA8BsvYN2eCv69vUEZCxHx6j6REIgAAIgMBGBDD864xjOt/PkwrhCGwUFX4EARAAgWEgQPKedAz86eX/9f3GERiGbNMLEAABEFiJAIZ/vQFsaiiH/pw4AllRPkOa4ZUixJcgAAIgEBcCI3X4yVxVV4ZuvOifaQeH7IJxSTqtBQEQAIEZAmTtM20QUy0PRwClAgIgAAJRIIDhT9VQ2+13pvRV0gxHoQJoJAiAQGoI1Ml7JPPbUhIY/m3XMCaHL9kFU1Mt9BcEQCBUBMjah4H34oTgCISqEmgXCIDA0BHA8GP4vRj+MytMZBccuq6hfyAAAgEgQPIejH4YRn/VOOAIBKAiaAIIgMDQEMDwrzI4fBemM1Ady50SZBccmhaiPyAAAk4RkIQsu0X5lCRoCVPZY4QZl9UcILugU1VBZSAAAkNBgKx9q40KxjY+XHAEhqKV6AcIgIBVBDD88Rk4nJJmYzZdxSKpkFUFQuEgAALxIVAn7yFd7wnGtJkxjR8nHIH4tBQtBgEQMIoAWftSMXj0c7XTgiNgVKFQGAiAQPgIYPgxiKsNYqK4kFQofKVFC0EABPohIMl7MqVfRfknaujOJNEBh1OygCPQT8HwNgiAQHgIkLUPQ3fK0OEIbI73KPSRyEx4kkyLQAAEQKABAnXyHnX90VxVxyh/HAA40IUDZBdsoGp4BARAIBQEyNrXRdHzDg7CJg7gCISi32gHCIDACgQw/JsUOL9h4E1woDqWzJikGV6hgPgKBEDAPQKSvCcrymdI12tCwVMGjsJ2DpBd0L2eo0YQAIEFBMjat11RY8zAyCYHcAQWFBIfQQAE7COA4ceo2TRqlN2VXyQVsq/9qAEEEkVAkvdkSl9FQXdV0LwHd1xwAEcgURVNt0HAPAJk7XOhtKkD58A0B6orI3X4SfMagRJBAAQGjwCG37RCpjyMvAcOkF1w8LqaDoKAMQTI2udBSZMZb3NmPPDpjw+OgDEdSUEgMDgEMPwYfmbow+eA3MVBmuHBqW86BALtEZCEItlEP0a63uErfow7Y3yaA2QXbK8xeQMEBoAAWfswBqeNAXikiweOwABUOl0Age0IYPgxdOkaOsZ+09iTVGi7/uQJEIgSgXnyHtL1YgQ2GQF+gx84AlGqeBoNAmcRmBt+FDuKHQ7AgTYcmDsCokPOaha+AQEQCBYBDD/Kfp2yn2ZzLC8sKnb5nBX6YTI9wpvVvCG7YLDKnoaBwBwBkvegwFcrcH2SF/qoSWY4eUaeXVsOZ/L7n8mPFkMcgbmu5S8IBIMAhh/Dv9lgV1fakjVX1ZXNZYJ5uvhUV0TntOUUz4MACBhEoE7ew2wt4RnZdiMsy/pdKYcTsB3fdJ2A6aoSjkBX6eI9EOiIAFn7UMzNDE91LEc/O9LsXJ0oSulXm9XFmCSLE2mGu4oY74FAcwQw/BiZdkamvNCcXaufrLeXot2zhi/t+NIXL5IKrZYivgWBjgjMk/eQrrevckrt/eq4I+XOvAb3UuNO3/7iCJwRIr4AgTYIzA0/yXv6KqM03x9Pqm+34dumZ8eT6nG3M8k0x2x4GE8dgT7bUJt4yW8gMDgEMPwofxOGoMmRv6bCUx8NZBuAYNOOHJgnFcIRaCpxPJccAiTvwfCbMPzzMkwL0Lxc/sLTrhzAETAtlZQXPQIYfhRqV4W66T3TgrGpLn6Dw204II5AVpTPLGajNM1XygOBoBGYLquSbKWN4uDZ5obGNPkzjgOyBdBxC2Cz3JJd0LSsUl7ACJC1r7kR26w4KGcTPqZFgPTA8G0T3/r/hiNgWmYpLyAEMPwo0P5KsjmGpqmPA9Ace5fjPLS66gupSDNsWnwpzxcCkryH5VOUp2tFbZrvcBgOO+Uw2QVNizDluUSArH0oTKcKc2l/1jTXffaFuhOWJbnFsqgeMs1nygMBKwhg+BNWVktG2KfhMn3m2mdfqBuZkmyUolutKG0KBYE+CJC8BwUVnJEyuI9KIiD4HQ6/cQT62CreNYgAhh/FGI5iPD0Wkr7XFNWzQj8caj9p1+lxTweP6jib6MdMr3SZkhnKGTACksBityifIk9/qson/H5LohVTIij3CqRjWMIfW8bi1hiRXdCUlFPOVgTI2ndL8FBCgWNR6KOthG74QH00K6D4BrgXOPc8cAVHoKEw81h7BDD8KJzYjI4oxPZMX/0G1wHD/1j4P12VJanQaknm21YIyP5SrkjXG4vw087ThsrU/ii4nsYVPOLAQ7ZpTclAK8PBw/EjIAEmU28yDrKjlBinMxwwcBKgzmDpYUn3TF9oA3cRdOJAdSxBrPFbJHrgBAE58kTWM4zpMAxQeaGv0OAAIAuDkAXJLLj30j195YH3B4qALBXVV1R28jJREoNQEgMbe4ne7yuunABAtock22wL9NUIA3y/Nv5cd8oS48AcAIlf6SuuOAA4AENyAKQvssJLbEBfzTCQ9zH+KLihKbib/TFwFJBbAJGPm3wakIOMEzAQA96nGxh/lNsQldu8T6Lk+siHvIsDgIzM+TS0vzgBfbVDxO/Pgv3eHhqp6Q8Ke5EDfUWUkzDwaZFPQ/uME9BXQ0T4PsYfpTY0RbauP33Fc125fI8MDYUDOAF9tURk78uAD4W89ANFvIkD4ux2Fc9pBkzw3YQvvw2DH5Luuquc8F5ECMgtaQjtMISWcWwwjj2SAZEDoAG+AwqMS12eSBgUkSHv0lSZ0bCniVJLStHhAHC8FSelIQeqY44HdrGskbzDrWYY/6SMv9InsuLVVTxlRpQaXvQ3bR1h8hrtrnLHexYQQJmlLdipKvY+2QBJAoTMpCg3feJmLJguiuyLgCzrcKUpyixFZYYDAO9T5H2fPkuQeF+bw/sBIZCr8kIfQvAuSjRWDuAAwN1Yueuz3awCBGTA+zaFvX+UoE9l4rNuHAC475N/8dbd/x6NvnaL9w0gMF3+RwnEK4iMXZ+xwwGAP334k+q7clrMgPmhCN8IsPyPAkxViUm/cQDgf8r879N38gL4tt4G6ucyExRgHyUQ+7s4APA/dg77az/bAAZMsL8iSGWK8vOnPMLAvs8shkyAYYxh6hz21X+2AfzZbiM1k/YXBeZLeYRRb3XcV5DInIkMhcFlP+PQx4HuK3u83xMBov/9CE3KCiOsvpcXeorQOZxoZCgsTrsdDzID9tUgHt9n9uJWWFJWFKH13eTtZrmqroTWP9qDbLvgAEmBPBrwPlVLIgcXBKEOFFFoHLBxvzlOADwPjeeu2tPHDvGuJwQ4/ofCcqUggqtn76V7bIhdcP3klruGt9yhC3pxt8eNmjbkkDIbIMCMBaHvJfQRG5cG4tHpkVTxpN9p65I+R2k7CRov9UeAy3/SFtqUlXZ/6VldQsqY0veE9Umhj1ZLBN8GiQDpfxMW1ohn7qaMjC2hJKgWuTLF0ZjKIR+ALY1iqVw5uxkTwWgrirU3Bwp9JFkvbR5bkqXQug6lX+3dXhw19u8j4gC3A1oy1jaKrRVVRORCmeIAbOOARPbL0T7hdn02f1/vSKY+G/LTpsw6W+C+3pnKXHWF1NtweRuXY/xdZK6NXPCsRwRQQiihGJXMzTbLbF5VV+aG3qModa66TsM9cwzEcWH7AJm8ye8oJ2fcC9BZGbh+MW6ioShSGr+pYZREO+WFoS8zilMg23OyTSErGimNM32NXa/1T6vt2g4mWR8XmMQuaMNv/2wp//GhG/xtCkiCdXEIhs/3wTg/lvJrbJMTfm+BALnLUSihKRyZ7dZ75AHs2bcQJeePygqByK84SKGNIe1Br3AxkHOV0L5ClAeCGoKynhn9x8WotWcxb8xXByQWgvgBZDoImS7KZ5DMwBFAWaAs/CmL6rhegcLoG9cSEiOBc49s+5NtfSJOvXFiU6A5BOrI4ygjTBFsn4Ldr+7qWILaUt/PNyfFm0uaJvkqL3DSB53RT2674beZnfzqFQEuAOpGah+CFHud9WyUPX2v8i5OF1sEyLxTXYLMe5X5jZVzARDKwKYykO0lme2zr79RDJ3/OF8V4Ggh8m9T/qVsCeZ1TnAqbIYACgAFYEcBTPf2xdA0YyJP+UKgPgZcJ1JCFuzIQuK4cjGQL9HeXO90FpA4OYl/MJtfvc6trx/ezDx+DRGBaTyQJFhCJ4CBOQ7IKmCIfE++TVwAZI7kySsMmUGy1zcInYIj0E0v1NtdSr+dvC5Y4UAS8BugapheRtKN7EMj+fS4VHlBjJisjNSrI3J5zOwoFUcl1/AEwx+gZJtpEo7AGs7fNHDTba5Vxk2+m132dDw0XdmtP+UFM6ykFGMIcCyoPqd6tUmAmjgEItA4AnOlKEf5WOo3JowBF4QjMOf8/G913Ga1C70huHExUHAi3s2TmwvBEP6290rFs087cLI6llWR4MhMg6wjUDsCyQcLVldkMtAW7JneSHh7gIuB2nLG6vN15O/NpawhGPN2fZDsc30ATu34pKx89MWsD968Gw4CU90hjmA7mYv9+b78T13ndnGcwmH9wFpSp19NTIBvKiBDx1JSSaIk8REI78AUgIHuiA5JYUus7qOhANc6J0aiepctQwNCZ6qIpHOEG8w7P2wnoN1epyluUk48CIhjOGRdIsZ/VZBf1xESvG5ORBJzBMT56Yob7xlGIFfpLeGJ4Nm4nGKIToAIK7N+w0I34OKGuC1g2vjPh3/IDtNG58bQyuscR/52RGAa1ZvW/t2cmBKR2xG2ja8NxQkQB8nkjGcjaPw4KATq1QBJ+zyAma0t4y8DnvL266AIH2tnhmKsuigam/tQMQu2KDxpf6ycpt3hIDCMkzL2TrokHQxoKJYiHLZH2JKUA1FE+GwOWYynA5j122REmmXHvRpgz/gLG1J2AGytwKYpZR17nfY5drvCLUMS0x4fe/0dhYjXGiEgxk5Wl7qs1vl4x0WgWtIrsEpfbUQcHrKDQMpRqKJQXHig9exH6Vd9KLCmdYpStrkdYoe9lBojAjN5uNqUm/6ec5OtTnSQvz76jf0SvRMjhwfT5pSXn0ToZHbuYjBDdgLqFSCDRyFd4Ekd8SMQdoyMG+Mvo5j2Cqw+IcjYoyyn7H3e9LodGb8QnQAXS5we6d2o6t3Lz98tjvBoUv7TPxTVhxu91OOhsbr2kbyovpwX1z7Ro5hBvDoLEAxsS8Cd8U/5BNZN/UsqcX+yzAVAbrYB5iMcihOQ4pK/KNtRUT2UTQ6/lU/0tdGk+s0tJTRdCr3/sRc/Mx8rW3+zyeF9S/W+lhX6Z6NJ9c18v3oof/zqPbbqDrFckYlw9JA74y9jkXQA9s3joW4xD1EGvLVpSRGdJPtvR6sAMtD+nYDqOIVlt9H+4adqo1roo0zpPzfhdrZXfdy2MMrMv0FbbmSF1pkqvz7e05+23aYQyvdvDN0aotS3X2/JABcDeZE/MQK3BsFvMIj3djjOSuXLCZD9RqnbC+EsV3peHf5tHVFd6J/lSr/VhVOfu1h+yHIzz/19UX24bdvEgcmU/sW4KJ8Sw/HIwbO3226nj/L9RcS7Nf71qkei2VdXcX+oOsmHDDWuM+wgHB8OiXsl4DYAqNvVpY0J5eFBmeWPi/K7udKvrVIsbb972IFzNP7qsx9o266Vz0/0tXGhv7Rz4egOD9Bbq9J9XMDQ5d6HLm1XJyeQrInT+oJjOp++UgHe3ENqR7bNZbk1krOVAOtHooYS7HdwcHDbAxdf+ux0udj8/RVS/nqJMfOL1LGZg635/I7EEOwW+uGhrAxIvIYL59jFMeBF1rjql2F+Wd8aHop+Whzr4D+negHQNuGoFY/DmAAhit2MgfaTHdkmu+ybj5T+P12X9reN+ez3G7b7MS8/V/qdhm1qq3zfES6NLx3m87pi/Ttzji3mz3ArF7J1E1MSJEv8XM1nx1uwscqEsXZz/GTzLMtHlLzpI5m1srGc6tgYIVcUJDNlidp3FSGeKf2HFc2w8lWm9Ju2FWym9G9zVaoHL+r3W+mEg0Jne+VXTGLlQy52JXbDyorlZj0WU50O6EQVcwRkzyUmcvhqq2yTuAxQkSAoE7MEKSPWSP+dgyt3jIvDvVzp112Oe6b0f8/lw/Zfl33LJvpPEichQZK2+2WrfFMrZLK651IuZrN+i6sYw3EABCtb/KHcJQT8H7mJh7hiTLOJfmwJQmv/nAVBdVYasRr/8Vd//oG80N8x4QB1cRwypX9tbVCXCs5V+UqXNvZ9J1P6x7uXrt+71Jwo/tnfCXAX3zNdYa2Mrlz0HfvQ33cdjxEF6W010kWATeiEa9++6nhXXX/U1pgsltt16TNG4y+GX2aoTc/qtx+3xs7my4tjYPOzHOmz2I/V+6wLS9CZ0ocuZ8KmsOziBEwdSjf7/SK3stzvy4n1yam+dbtKy26Ki1GX03ewkn6/0EeulqtuziSkztn/6yLgYzP+oiyzQn8nV/pGIHx6zpVQj5W2fvKjCaYjVf2bi/THJnFd6wQU+khmkYv/y1anqy08WSXE8Dd2ts84qYKdSZ5Q1hoExHg1UQ48s5nM9TFKx6cF5kNaG88FIxKT8d+9fP1vAjP8tTIaF/qHc3xt/11rxBZm6U7lb1L+IKYYgWX8JKeJ7TFbV/5Un5o/kup0/H3xbqneGFel1vEi2O9NR5unSNR5n8XwuowPWCbVNHNaJKl9D05uy4vqYqb0H+f4hfR3XJTPLONr69+50t8Pqe+ztsjRxO+Jg2ar3ybLFSfAdVDfYvvFCV92RAIc0zMz7bDb6GarZnEck/vs6lhV2ETbPLtv23afiigGAu/ulfdnSv9XW1xdPi97t66wHAV8B/xY6bfl+KArLPrU42p5f7mNEgvEcr9ZHTqVdbdZGZfHNYl/Q1wbxJ2WKfvzvpRSiOQ9/7UXPrpbaO3SkHeta9fhMrJc8tO1nQ7f+3W2rz8WIq98tamOyZFYnKWla/5tSqdyMZBVbsseC2Q1RdZ15VTHroIErZKlZ+Ehz3JXyUA2uf6Vnl1u/PpoUv7TqjYE+t33GndswA8S5LdO35n9ngmURSHiAiCzZN2ksFNdDdi9fP3uXOlfb8ImxN8ypf/RouidKno8Kb8QIgYb2vRGqk4ts353OlP4x8VAp1SF2X8QtOKYzI4zj5llS/vS5EKaWLeYxsWLD7Tvcbc3di9fzzYY22ADt7KJ/qmLGxO7oWr+LTFGsfI5Rn5NHQB3wbjmGRN4iVwA5NYBmAuhz5MCLigpV9Lmk/IH8/7G+He8pz/tAiupI1PVZ2LEaNbm3w/9uBYR/n70ZM0vLgayo4amSWU8DmzygTPuUpHaYdDqUiW1rMvc9rYMp8uAt91LLwpmwc70m7QtK6qLqxkR97di/MmU6pebcTMo0NZzAZBfUotSFcUypCCX/HL1eYtX2zo1kKP9a//TlejuXn5e4iSc9s9GfbIlcO8jz97uCjfb9cjKBkv+AfCSi4HMU50LgAIg9tQJiPamvjkrRelnqvpXG0bFV5k76ujOef9s/5V9dF/9tFDva7K6aBsz2+Wz3x+GfhR+cjGQBbaTACgcgkssRqwrATJ7HSvd+bZCCwbIxEz6PQsit7bIg4OD2wLFoSuWN8bqMF/b4cB/EAeGmX84+pGLgSwIzMAUTldFFcx7PvOXd6XXSOlsmikuHGVhgtfSp66YdH0voEuQjMlEjJyW8eN0VFjyLM5YV7nivRUIcAFQWASfGq24sl7J2fVM6b+aMLjhleF+LHKlfx8eDibkpHp6hQoK+itm/ybG3WwZQz9p4lQguADILDmNKe5I9k4jy1zXZUb7mlOBlFnnpPqNMR6FF1D43M7B0ftcY9qlPrKjBqobFRcDdeHzynfqq2vDUxJdFPWw3okg2jUv9HcGbKjmfPqPlYJj8ctM6V8NGtdCH+0cXLnDIoRGimZ1NFQHgIuBjBBcCmGJK0ySy8kMY4NsoaDYk/u0MLCHFuDbWGSu9Mst2jd3VKL6Wx97vag/uBEIzz9yOipQ3aj0q56pMYzqWeIKk+C3lH+YS135pPrirTaGjmG/9sl5dtfSPlLVv6WAbzbRvws1fTDBf/3kxjZ/Yz0p5VqXbKwvV+UF2wNF+X0FKczlrmxSfi6J1aNJ+YONQmThx3Ghf5iA3LwlHLIAX68iZ9n+riaAf1QrRsvjwcVAvWg+fRkvt69xdvN+qMkvsr0X7hr6fvVY6X82IGqtishV9fSywhvUvyf6lw8GuvxPThQ3Oq0vn0PVia0E3ffDXAAUB9mDPvZycHJbrson84n+S1+hDvH90aT6pms5HRflUyFi0bdNmdLvjvf0vms829THqmgcOlEctTbjyrNLCMhSV1+B5n37whKLpzuLJ3ljaJwYK/cGS26IHBqOudKvubxUaUndtfonqwD29ZoJfrcaVB4+jQAXAMVA8rjSAj94Ub9/aPvXY6UfPS059v812htabE719CMH8VwMRHB0DLpRn8gxTfvSONAaOOISPsljDXQZUoDgqKgecq0CclXfpBh1kNZshvfmAxdf+qxr/EzUR4K08PVjrOmlTfCzdxksc4VN8NgvvZgGCJb/bmKpz2sZHmYZ46J6wGufDSQGG6ny+VCP+DVRntMt0uo49nEYcvtj15FNeGjtmSETI/a+1cfrIkkFvImgcrPdSOlvxBwgOJ6Uf7epjzZ+O79/+KmIOXzDx7aJjXFgmzT4SRIXA3UhPikuwyZ2LIF/TbmX7VUfz5V+PUajNlbXPtK0n6aeO/+1Fz4aI1a5Kl954GL5IVM4hFAOK6Vh60q5rjkEnkTVBva3Qia1+9vnXJB358LRHTGmD/ZxXv28OvzbmByA+ibIif6WrPi44JLLOsTAxDQW6bU1zGypLjnaui4uAArXAYg18K8pCWMLEPQRvS6nKSJS5G8EnaeiKTE3PMeEKVx9KcnsNgwdP61CIIkUrgYCmZwr4USSW0QUIPjeKvlx8V2u9HvO+ddWZiblD8RZcYGH7zpImhamEyCXSvnmRlT1s6QVJpFrZe8h4twXeWW5OFPl1wMPEHzLFz7ZRP8pYAcgyDz+NseKDIHh6k0uBmrBfIgcKJETmf0vUzXkAMFM6d8ut9fVv4OdcQacx9/22AQ7Jm1Xbgb2/NC3TY3ymguAAnUAEpr9LxNaAgRHSv+f0Ga8mdL/udxWV/+Wpc2Q8Ighj7/tsWHyFKbuHNqpKas8Dk2xhKTkvLUl0dn/MtF3L1/PcqXf8jYOyzMjj+OSqaCSKEWTx3+ZU6b/zSpAgE6ARzk1zS+r5XEBUIDkFaOT8Ox/mfBy7C4U4+cz01hWaB2GIxRXHv9lPpn+N6sAYepQ0+M8yPLIbBUeeX0amVBJLgGCeaGf8B0gmCn9Y18YZRP9U88OQLR5/G2PGasA4elRJlENWM951vCIO/Qz1A1oufYR3wGCI6X/ZW3jLP+QqepffTkAsefxtzw051gFCE+PcjFQA9aT1jIw4nrau5Jc8w3oEsQjswDBf/FhDLNCf8cXCLnS33Pd50zpP+9Oqq/46nPbemW7yFfqYXKphKVLWUltID2uFQr1bRMS92ksdw6iCGEgAAAgAElEQVSu3CGBdpnShz6y3DWg6cpHfAQIykVGKxvj4Mt8r3zSrfzElcf/74vqw7IUL1slDobjTBWspm7TbW5/F4fszCDxxS0EuADILSG3K28/Of/zQn/nVtvKV2K6slVmfPlE//JW+y2PaVFdvCVBbj9lqlQu+il5/LPJYVR5/GUFazFR0nl19ZNuR+fcOQmoZhXAsvwtn8rZ9m8uBlovBrJH4kKhUEczofBxdnV2ycy7S2P0xu7l5+9ez5zwfplxebkfJ0v96v/vSfVFX73Pi+rLxvtzVoFGl8d/rA5zyUmwiE2m9K98jBOrAM103eJY2f3sfkXVB+861ckFQGGR1Uf6ylyVP1klgJnSb+bFtU90Ipanl6S9mdL/vao/xr7ziMlIacmJ0N+JWVdGhHn8R3vlhXV3JIyK6iHXVCStukV+ruPtxu+5GGitDLBcFRJZ3RN1tH/4qS0G5UaMR2lypb+/pV9djeiNtcLk4Id/qPe4zXNWls7lRkYHXTBaxemtq5W4vH7u4MT5dcRMrFaORVeZ6/UeFwOtETk81XBIKsbKx9E/WSZtZCg9Lnuvoe/Wr8eXDvPFPeFG/dw4k9AnEmuwtWLLD1jIiviybANZbrbZ4g9Oblu3crU8zhI3Ybby7aVxJDAs3epjZXU7Szw/AUkDIqmHo3+Z0v+4rCw3/XtUHD7hmbKtq8/2Xr4rV/rlTf1q9VtRfbl1Iwy/MC70D1u1eYNTk030Y4abZ704ObGSKf2LphiIE+jjemJWV8PRr1wMtEIss6J8pqkQ8ZxtMrsPVMmVfr3DuH5/BZWC/2q8p/c79HV56fH1EDoq2wDLAW9t+ybLoruXXrw3hP60acNOnRK6/YVIo0n1zTb1mHgW/WpbZzYv30dwtQkOWS2DC4CaE6itgm37vOslqny/eqhtG+fPZ4X+mVViWipcMgj2CRDcLcr/ZalprYsdXXrp/Hw82v+tnm5dYQAvSHKfrul2M6X/6Dq/hWzptR+bcHTSoNruYYU1AJFZ3wQxOIMa4A3LnKH300e2qlzpX/fCpdBHO+rZO9czLNxfJJVvm77LbDvEJcTxpPxCy368GWNApzBJTnf0jX3IPORvYJIVjkMTrkby0DISAIVDTInFcEmBTFWfaWM4Njz7WnTBYzOgx8WLD2RK/3ZD3+bL//8R8lHI8Z7+dK70a9v6MZpU344pudOiPOzulffnSr+zrY8Nfn9jsVwXn8mzEpCe5XbVW5QnWUUYxPSRqtLkEaVson+X7euP3WJWXJ/GxeGeXDO8sKf+Tq7KV2T/9v7HXvxMLL0ZF9UDsjUjTs2sL6+Plb4qtydmey/cFUs/lts53tdfWnfGv4HBnztxN//uFvrh5Tps/puV1jD0rHCFi4EWmM4FQKEQ0+3Z//Nfe+GjXRTnpnfEiYnpIqEFMeBjwAjkE/2tTbzr9lv5iusum3S4u/U5FF3ntx0+tlpdc61xfRDJLxnn+LveW86U/tG8bpN/ZdYp6VgbE5AHQWANAgcHB7fZ4umU8+Vn11Rt5WuRcZOyRlnddLeP1VYrhOpbKNGp3QhkWvBcE1L26+WSF9P9WCjvPUnL2pefvJ8uAvUZ/0LrBU7dXL439Z2PmaCptlNOT93NxUDnzhGY0pNExk4cuF3+HxflU04USKG/k64Jo+ddEZAgRYm/cMDR9+QGya7t7PIe2wCh6FwmKOcgYxhkdL38nyv9hgPlOpuxlT/xkYO9i3LmHf8ITM/4u+Pnriq/7rLXTLrC0Lm5cjvpcsmxxnV1TabhzniEQha77XCZ/EeS2LgeP0nX6jr5SmMh4MFgENi9dP3evmf8W3N7Uv3GJQBsu9rVpU3HP/mLgbgAKAwiyikMlwooU9W/NhUSs8+Vr8R6/tzl+KRaVzY5vC9X+oZZzjWT8fGk/DuXuDPxajYutrngcuLlkl+N6uICoDBI6DI39c7B0fsk4NC2YG0o/w1Z4m1EUB5KBoH6MqqJ/ssG3hgPAFysS3I9uARblp8X6+ezJ12cckIgLqjwRLrlwEGHJAzkGNJbIWfUc2kIqOvcuZHS3/BtAMdKv+0yTiUQObTqVPke0yb1u5x8BSfr5Kb27wC4Pv43UuXzTQTDwTPvSFrX4ISCBjlFwN921FnZHxXVQ646T1bAs/g70DlnHR7H26+u+NWoHi+AL89+E/+3y3PI9dEqj8usK/j2niz9NiIrDw0OgVzp51Zw4qySdqcjnnMJMhOwMJwAl2MeTF1cABQG+VzmpM6L6suBKdyZsi+fDEYwaIh1BHYvX/+bTOlfhcbFTOk/S+ZB6wDMKuAOljB0sJzKcDXmwdQD+dIjX6b0j0NTuvP2yFJwMMJBQ6whsHv5+btzpV+fj3tof+UkgrXOLxXMccAwdLDLSdgSBfz9kwuA/JPP9f6/8/PVLZduZTvk3keevd2fVFCzTQT+fnIol0+9GZrRX2xP5jhz5WLdfPajk11uw9qUr1Zlez4K5nOfL5y6HQagZHvVx2NQMLI0LEvErcjMw8EjIMmn4tA5bm8IZCLmx+if1oXVcfACZLKBLD2FQLr6TupvmxzXTWXtTqrHT5M+DAzWtOl1WSre1B9+iweBfL96KFf63TVjHY5DPluxcpmsiqPYgeihlC4GIhd1IKRT7i6jyJQ+jEUBz9r5piwZx2PmaOkqBMaX9F5kvDsZT8ovrOqLje9IxpaeLrbBo1ZlkoUqDNI5iz49OLktphnY3GDIkrEsHbciNw8Hg0CuqqfnYxnT30zpH7kCkdXYMHSx60yQrvi1sh7yUIdBupWDY+HLyI98vitLyBZgoUhLCEi66QDP+DfeasiU/qMlaFYWG5NzNNS2JnMxEBcAhWH8XV4ANJpU34xdcGUpeaX25MugENhRz96ZT/QvY+fb3xfVh10BSyBgGDo5iYuByEEdBtlc3kUd82xsyZB8z5VSpp72CGR7L9yVKf1fS2PWeOYd0nsuM1QSCBiITnZ4J0t76TL0BmQLg2wuk0+EnHilg9J/zuWlLYbEbvDFzM74/77DeAbpIIyL8ruuBo2g7GB0srNTWa64daYe8k+HQTbZlz8zOBa+mO3HBqlkuxqLTOlf7BxcucMCXBTZAQHJMRHHGf/msp8VWneAotMrkcfoDEe3OMzL0okoJl7qqnR5r7nyaIKVq/2m8/uHn2rSnvieIXWwCX3QtwxJ2pQr/Vp8/Nksz5nSf+iLTdP3icvaPBYuudV0zKJ8Dk8zPaKNJuU/uRQgp3UV+okoBXEojZ4eL/0Pp2PeMr10n7a5TAjUp528a06vOzua7UMHcAGQOaL0Ezp3qSdzpb/fr62hYHa2HZlkl3v86j0+ZKlJnfX1y/t6p3a8O/7dUUd3NqnLxzNjpfeHyi3p10jpzBWubM2elW8f3HIZm+WKWzfr4bhJGCRzeQQwU+W/+xAkZ3VOyh/cJHhIHwzNjiWDY0jdWmxLNtG/czbODmf+8z6NlP7GYn9tfkY3h6GbB30x0NACdeaCGttflyTLlb4RGz4t2/uOTcXctWyTp21Gkyq46ORZ1P9wAsBWOBjZRP+06/i3fY/V2TAcAEmS13bsonielJOhEMzdJUDjrz77gZbGNE6FXlz7REhCOFb6UdO4j4qwsiHml6vPm+5jgOX92hWvcADC0c8SlOlq3J3Vw6UT4RBMhN3FwGf7+mMBKlXjTsbo0kvnXeDZpA65u8AG5pnSf5bjdk3a4OKZbKIfs9HPkMqULQ4XWEodJGgLRz+LrXQ17s7q4QKggAjmKAfA+UuH94WkUG21ZXzpMHcmSBsqOq8O/zZT+k1b/ZTlSZeR6Ru6ei4rqov2+hmIrE70XzZhYPI3TmgFMuZKnwzyYiAuAAqHYCLsJpXHurLkWtPBK2mlT0K4NvjeR569faz0q9bxnuhfHhwc3LZuzF19LxHy1vu6Yl/edZ0PXtQfdIEpDkA4+nlwFwNJ0hnXgkN96wntKgnQ0I9pCceyif6TCwW9rQ4JGHPH+erpbe1x8Xuu9Dvu+rxenqy2wWF8idV+BOBMxdQ/VzrahZyyvxQY+Z0M+rlz5/JCfycmoevS1rHS/+wKz3X1jIrDJ7q0vc87srqzrj2uvh9yjon52LiML5nXyV9Pzt6inXC0SutEVk0eSYKc/cnpZNDFAZiUPxjyeMmx1vFXf/4BV3iuqifbL+/PlX7PA87v+s5aNot5+LOHvhsPJF3XB8mkuWrcbXy3rg1831/ntsXQVaC2DR6dKZMkE+4JtIlwZwbI0heSb2BTO6L/rai+bAm6RsX+Q1F92HOehd+72qNeB4iNI48h8XK3KJ9a13fT36OnA9LTQ7oYKCSBoi36xLTiWFdePtG/HCzeRXVxXb9dfC8pejOl/9s3vpnSv3LR30115JPqi0ONBxgp/S+b+m7yNxyAgBwA5U5Pm+TQmbKILg2LVGIwzgySpS+GqFBGk+o32aT8nCXIGhcr18X6Nv436w8gHfJYXfvIIB1Oh9gOUV5vcnRxfz2Sz7632Boro00PkmEqNAfAXarJQSmUQh9Jkp1NXHf1W4hXLO9evn63q/5vqkdiMmbBgRbzIbiU6erKpv6a/G1Q8hqJkd/koAziYqDB7wPHRjSHe0u50tFe1Tq7t+K5bHL9KxJsZlLR9i3rkYNnb8+U/usm5eH4txt9+2Tj/by49olclU/KhVSB4dU4iNDlfQA4AC4du+11ubyzxYb81WVyAdD2gXaqrB06ALI/7LRvPZ0xScAxLsrvPnDxpc/uHBy9z5pQGCg4U/rXoWC7W2htoEtWi5AMhtPEVNUVu9kSjcv7c1aBWSgcB8D42DV29FbLsrvV2gUamPvIBUChEUqfiJCbG+HNJYVkpFYJ2HyWP9orL2R7L9y1uTdh/Tqe6P+9qk9+viufDAudza2RTIayjZJNDr+VTx0pH8comxmHib62uTfmfsUBCFBfx3wxEBcABUgohw5ArspX/Bik9bhnSv9nVicoKj8bQkrbruo7V+HchicrJl37EcJ7Ejcw3tdfylX5k1zpt0LibKbKl1xhhAOwXm/440TEFwNxAVCAhHLoAIix9Sc4U+zHSr+dFfpnu+r6o77PrJtU5LNgt2azyJ5bI5vGUPbWJSbBZN+8lnVwcpsEe44m1beDcGD//90LrvDAAQhPX0d9MZDsqW5SHvzmgXBuHQBP41++ImmIM1V95tzBifeLa2wp8FzpN3zLkGzz2OpfCOWK0zgqqi/nSj/nI+mSBDC6wgEHwIM+3uKcR3sxEBcAhUcmMRYuCTXbX3UxS31LoqVFUQ9plr9N8WdK/9i3AyCxCNvaOZTfZcsoV+VnJVDU4eTmZVf44QCEqbOjvBgoK/TDvpUT9a8mtCuFYjdZTfmKLNPWZ/MHPMvfNFaSJ94/x6vPb2rjkH+T46EyBiNVPm9xdYBTAFtmyf5lYLWeNdauGC8GIgGQZVL0EApXStlwDEg9y8+L6ss7ju5Id4VT13p2L12/15iS6cgn35chdcXO9HsSBzHNelo9nU+q35gal3Ghf2i6revKYwUgTJ0d5cVAkClMMoliWqcATH/f86jae7K/LJehjPf0p4e8l98Hd4szzyZbN2/0afuQ3929/Pzd40t6T3IkZEp3vrHQ5RYLOjtQne0wbsuYTJrygCnHPCmNDfKWgvK98smW4/eWHMWSI1nMLLeAO/vZ7jbLZu5JDEKzVqb91L2PPHv7SOlsdi36621kYuzyNkBVHbdpG89ulg+T+EQlQVwA5I4YXUjmikxZUV3c0j5JwPJrUXKSmCXmc/muMF2up4OT1WRm3+gZmeEut4d/b0cgf/zqPeM9vS9n/DOl390kIy7zwW9qB7/51elRXQwkpIUwfgmzCf/tKsrME6uS1WRK/7GOXp9UX2SW3x9nScKzaayt/lZc+0T/HqRdws7BlTvyiT4v1/6uOtYpWSpdIWSVKx1jTGjT1I64dAR7840LgMI1/rVAOYoqPX/p8L5cadnL/1U+0d9ilt9btM4U4PFioBus2JwZjt5fZPv6Y3mhn6ivNp7ov4gT3bvQhgVgbEPW2+5uhWxIl/WPcQFQyETSJ7JFs370zP2yo569Uy5hMVciJa1CwMelS5nSh6vawnfmEHjwQL/flfzkey/dgwMQst6O5GIgiBQyiaZti2o5yZw+HWxJch59XJTP9Ik2b6H8b2RKfy+lhEuDJc5Cx4jbCl9vi21dGLIwP3IBUPhEivJcaZh0D6pV9f0AdQpk/XYLg94o4E8uyZHb81zNSIMCNoHGkLgtfL0tYxQ8FQ0nf2mqnHiuVZBNRPtJwTM+vAbK1kuuyicl4LKvI5Ap/YfdSfW4BKuF11NaZAoBErfF4ACUz5gab2vlOMyRjdFvZfQXCB5jYglrjB1uwTsXju6oj5tN9O86OAJvyDHOQd30N9yh7t0zHIAF/dhVr1p+z+U9Lp0IxQVA4ZNIDEHwROrEPl5ah8DOwdH7ssn1r+RKb01Ckyn9X+NCf4nMi+vQHOb3nNyKQ3cHzT4CSeIgkTgBQROJxtlB4ODktvGk/EKu9GtnVwTKV6LYY7SDTPKlkgY4Et3t6ARXJ4FgGSkOEskxzU4DzEuDQWBUVA/V1zUX+mhcvPjAYDpGRzohILqb49vh628Zp04D7OIlvMiQCVQd17nIQ/YgXZCUOkAABNYiIKu4oidwBgLV5SHHb51dVgwURMvBGqHhELTXuFYV8QMIgIAvBNjODdN2Bbt6K5cVhGb4aE8d8HfVlxKhXhAAgXgRmN1eyGmrwCaMQV4MxAVA4XmMEu0vJzPiVUG0HARAwCcC5HUJT68HmcmVYySBEaXQRxh/n6qTukFgGAgQ3B2YblcBJnLLVXXMkrtfosj+0NQRc3eF6DBUHL0AARDYhMD0jpfygqwIECDoV8+Lrd00Vs5/4wIgP4SQJX4x+LIkFOS+kHMmUiEIgIALBKYxX+WFenWg0Ec4BY5tQEgXA3EBkM3Br47leKUE5IiwSbIWjL0LFUcdIAACbRGoTw/s6x3RVXPnoNZfysoFVckGKAaVtIto0WYOQO0lF/qozpcgCVhmQrLw9/G5ALF/31b1uHv+wYv6/ef3Dz812quXRJ/OlD6cj2lW6J/VV/NODu9z16Lh1pTt649l0xsOf5VN9J/m24xy9XGm9K8ypX80Kg6fGCmdPXCx/NBwkRhGz+rV4n29M9dz8ndB/0kyoqs4DNvtidjcYBghS9FzweTvdPDm+/H16QiS7wTD1TYNkRvwRvuHn9pV1x/NVfV0VmjdJtZFHIOxuvaRNnXy7C0EupwsEsdAMhyKY5Cp8utjdZjjGNzCNKZPxB2sdwSCuc+FC4CWB6m6EtTyTEwS76mt9a15k/LvRkX15Uzp7+3Whl6/YcKZHcvSZ3HtE566FmW1M53ysgn8F8q4kc0cA1kxGF/CMYiNHNOtZoLN55wOYvzqpZzAEiXMAXL5t14FYaYfBCfXNUKutpX4CbntblyU380n+lquakP/nmWu3JCVhHXt4vvTCGSqfMnyeCzuHd/IJvr/3lwxuHSYf46thNMDEti/6tgCbM6J2F7vQ8NgyApAgOcyvTPDXwPE0Muse7w/NfSzHBVyFa5tQ79oWE59zpT+g7TLHypx1CyxFQ6N/6kxWqy3jjGY6P87PfZWfj2f6PM4BuFwiMBzfSK21/uI1MFPSXtjGH+fJKyPI02qL84Cxa42ufN+UdG7/JwV1UWfWMVQd6606aX/tUa+49i/IysG4hiMlP6GOAb541fviQHbobUxeScghIuBUj7/GUwgxtAke6k/MnPO9qqPy132o0n17ZEqn8+U/u9M6b92VOKmjULD8qrjg4OD25a6xz9nCAg2Pldp+nBpGnxYviKOwa4qvz669NJ5CWJjvO3SO+UTaGJ77aK7pfRpMojlILiE/h1SMoYtYxXDzzsHR+/bvXT93t1L1/9xtrX03GhS/SY+Q79eBmSJO4ax8NFG2bbpY4RDfHfuGGRK/1hWDLJJ+TlZMcAxMMMwCRhNeRLqNSdMl2M6IQpptzax9N9HhMXQ56r6/G5RPpUr/Vw+qX7TbRzWG9sQyxsV1UN9cBvyuxKcGeKYWWrTO5nS/ymOQa7KJ3NVfnbIY2uzbymvAogNtontxrJlucuScDRcUvWn/Dnqt5EaG3/M9sv7U+UNDsB6asjKT7K8CCGga/3QBP1L2ivRHieibZKiDE2wydTXTyeEHKxnlavkBFhLHFkat4p9uMHK72V7L9y1Fhh+2IpAoryRE2h+LgZK/QKgrYzkgY0I5IV+IkGhvbERFH48lyv9Vmq8kMRTDH0/BFKOAxBb3A+9Dm/LEnhqgrrY3w6QOXtFCCFLzbK/fjO3dlE+E9Ly8/irP//AIp4pfM6U/oUzEkRakeMkQGFsNU70+RCGSxLLzHJm3MJldhGZpMP2GnC2BaAU9Me6PnrZjk458EIGYgsfnf4s2xFi3KcxGdtSZVbHIsyLDTx/6fA++c71tkauyp+sI/UQvw8iccfiwAf4eaz0o0Mc+w19etP1iYD6qGJRPiU6Q4z6LJJecmjcMvxrP4t+qa7Iu671xSa6Nmt7k/7F94yXi4FSvwDItzcss/xsoh/rnoipFuTj04JTXtgkZKZ/u/+xFz9zuv74hK9F+9nnbUCgex959vaktgEm+lsNYDH2iOnU7bJi4GPysAhI6qvRXvLRtFB8DbzK+BS/D69rbvStOV8eMkvlSr+WApckedGi0uLzegTk5sUUOCFJj1wH/9k8ueXLGbDZp1h4uF6aLPxi2ouMBeTFdkrQiYslMKlDPOzuM/2WzpXjgJJMlWoR18F+DuHiDgu6wEaRCZ0GeM4GfpvKdBUsJ86Ai5gjmRQNVmes3YZZodNd6pe0EwAtgm/vDKYIz5mAnDaE6Pis68QSDx7o97tSSr4URab0bzcpZX47i0Cu9KGv8XJVr+ttRB9L5SLbdbyYhYnFLHbhVVfjFXI9TvV2PaAdDUzIIHZrm7l985rQsq+vtgXyLTohZj/72E+aZkIz249uY2mnDRKrcdbE8c0mBOpc+gPWMZmHo3/el8oLfWRyVcB7fwLip9MtaWfL0QEBvMmg9AVfZgJC5mBmwha89U3KfuCrAO/uqGfv3NR/fluNQDbRv9skdzH/5nr2P5stvx0GZtVxnQK8o56pY6GUZua/aB9dxm8FY6gWAfD8uQ7Ma7EPIwpAHAdrAX098Ojr0KxW55u/zfckH7qdGbjPcsdK/2hzz/l1HQL1dbsD5IRsb6zrs63vQ706V/SfrJA1cYjE8M9ymwTiyISjr8Qm2+LOmXJ9KtTw6556t7LUJefrxfMWcstnIbrs64fuQDkl04xdO+roziEe/2qi2M4ImOUvdg6u3CF8rG+nU+XXx/v6SyG2c/zVZweZLMrHjZAhTjRW6vJCH4mRX/w/1InSyvZ7dFgtq41bxYfWcdpjwxM1F9twizmbPw0tFiBT+tebe+z2V7mKdlNgaabKf5cTPm5btbm26W15NvjtrUzns39x7tCR3sbb2TH4zZJk8FfINHwySZyHQco0KmposQCS1a5Rx20/dHByW6b0j5rLbfmk7SY1LX+3KP9X83aHL5c+VloIlgufFyY43lSmej9norGUEQEpOwbp9CHYUGIBson+Ux8cTL67ada/Tg7HRfldk23oU9Z4IAFfPi79CSv4LwKd53EJf50sNv2+j4y1erdpg3gudsLby3OwjnA7F47uGEb0d/X0uj66/H53Un2lqxw+cPGlz7ps67q6RpPyn7r2IaD33pUgtnV9tPV9qMF/AY2LsyV62322xaEz5fo8p24bRMq/5bRIMKDMIM4QwPIXEkAZ/Tg8ftW5sl8elt3L1+/OlP5zVyxlFWP30vV7l8t1/W8JWgw9cHYbxqNJ9U3XuEl96Opb+mzbGMX9e3XsjF/kAUiFVPrE1w12WcSZ4ORKW2fCuKEiEwF0PhLWrOqSRIJHrKBfd33jn2DI7D8dPe00ZqvLnmLEwjuYJaIuY+BrFUBmr7nS73Rps+93TGY7W2UMm3wnM3dTOMiRwSZ12nzmH4rqw6b647ocCWS0ic26spmo4QCs40av77kLICFi1UEx7o8ECkFjPBYo8Qs+ZnvLAm1S+WdK/9dy+T7+nSn9C9fGu3995U98YMWFbWnpaKfJ2yBXWuSSfUQfSmzn4Oh9udKv91fC7sbL117v4vjYyKM/KqovL9bh47OPy2z6cE9Wz8Zf/fkHfGBl0gHsgwHvOtI9rvN3MLCOBjaYYyl+VgEkEj0mrj14UX/Qh8JfrFNm7BYw+72c0Fisx8fnTOk/WOiblW0+Ob3gAyMmaKnpZn3inGfEAaRGMj+rAELsXOnvx6D0s4n+qXNBXKrQ7pE5/wmC8on+VgxcyCf6l0tD4+yfzP4T080ekrYRYRrMzNwl2f2sAjxy8Oztlma1hmd+pddz87Pjcn+0aCBvPOzhWOii5ZQl9Uzpv1rsowlOvCn3GCy229VnZv8u9WEYdUlMnit+naon9rO5gSsRE4rIcBn+VgHOf+2Fj/Y50257rEMIlJMjm7b7OVL6X04pAQ//yAv9M9v97FP+/Y+9+BkPsNRVMvsPwyj34U/rdz0kmKrJFvnZXMPGMQ3i+coLIIQb7ZUXWguHo5WacXG450vpS70Se+Do2OR7Y3XtIz77GnJcyFjpf/aFDbP/NHTwaR3oPlvrTX5LasvTjUlxANLqs6+8AHPS5Uo/FyDn3pHl93kbffwdF/qHrnCR+B8ffVysM8QtIbly1+cRUGb/aeniWt59zf7nwshNU+mRzumZ0znRZn931NGdudJvuDJ2zeqp/nWpmU7/KTPyXOn3mrXVDF99JbeZAysrLi7726Cudz53sfzQvH2u/5L1zwyvG4xzMCvHITji52QVgFiA9Mjn42KTuVId7R9+KiRB9Z0vP/eSNrl8ZT4ePv7Oro7ufM+Bcf54zpNAzv8EdbDrs//rBN1F8O4nvPwAABonSURBVJFxgXW0NzzYdvs4erJAwFBmPJkq/32hWc4/SppebxybVF903uGFCiUg0VvfF/SHz31/gQP9m57x97kKuyCC049yYxweaHoklKCjM2Rw+MXIQdT7VgPj2Qj63QuvjiVbo8MhP1VVCPcDjD3HQ4juZQU2Nd1bHfu4pfWU8C3/gwjU1Ego/fVPREm+s9VIL8zWDD/7ls+gr7HSjxruT+v9zVFx+MSyLnD5b5+Bb5nS/yk5Klz2d7kuErIlqHc9T7yWOXjz3xwLTI+MPo8FCvHq+wIKfeTDEGaF/s5N8jv+MEuOFEJa3Bs76tk7HXf/ZnXjSfkFH2Mvzq+vZD/zzjPpSk/fBrX0Pyfi4l85CuNHINMjQyg4j9ThJxc54PqzGKDRpPqNYzzey/ZeuMt1X+f15Xvlk477u3Z1YFyUz8zb5fqvrMDkSr/pEoux0m/L9oPrvi7Wx7ZrevpebGtwS/+LpJTP7EmlScxlHrj+9+7l5+92aggm+prrPs7rk3S8jpL+rDX6pwzuRP/F5xE4p7EgE/2X8Z7+9HwsfP0l8C8tPVvHefg+89+U7DIjPKUg7O3BNlNQ1G8dJ2/5qBdIme3rj2VK28yFfxPHkdLZQtVOP4Z4OVJW6J85BWGhsvPq8G+d6Zv96qGFqr18RL+mZfxrboe6779OAkI5puVMMSTuZITioeaPX5XslL+3Oe7ZRP9uHe9tf+8j6U9TLM+rq962gkaqfL5pOzs9N9F/ySf6vO3xbVI+26ypOQB+LmFrwsWNz5AlMC2iimLaSAhHPz5wsfyQzWOpPiPfQ476zpT+laMhPlPN7l55fyfD3sxxf3dcVA+cqdTDFyz9p6VTxYZ6oJm5Kn0e07GoEG4uBVPHaYH0fSpgztzR/rX/ackJeNdX1Luk3w2fb9Xn52Pg+m+m9G8t4POOJFty3ZdV9bH0f1rXWBjroPR6KBOqVVxs/B3RqmmRVoTS96mAOTmnToDpewP8eeRy7jx8pff/r4w+OLltPgYu/+YT/ZhhfN7xfefBHD/0aFp6VLZUg4/4n5Nz218xCGSrSonA/hMEzTmZ7b18V67066YMg68IcH/n3dvzdryn9+f4u/wrKzOmTkdkSv85FOMvGLKd2p6HpmTeRzmhTKKMyS9BgWkROKS9q/rYnIFkQTIDNyYQLQsK7wbEjXx+a/fy9b9p2UUjj+eT8gd9FXam9B/Gk/LvjDTIQCHozo1cC2rZvi/3pu9HGvS3jetkCoTI2zhi63dJGNP38phscv0rttq3qdy80E+YUSzu+Jcp/b1NfbL1m9zM2AersdKvPnhRf9BW+9qWy+qpO8724Y25d/1tMbblZqfnCQpMi9ChLWXJbCpT+q8dBPbGvY+4z/s+W9a+0aG9XmdGmdLvyvn8Tkqi50tyGqEjXs/5zu2/2PVZUjUyqzY7qeGV7x35dqrNgwj6WyTwqs8Es6TlAIRwYdAyD2fR9G+1EVpfObjHE/2/27QzrGfLnyxj7+Lf40J/qSUO70lqZRdta1MH+/7p6MpBBf1tIznLWukQu1bEhT7axgnXv+9evn53m6t0feR+l/S6uSSgiXgG5CM50Ox+gEYOngT7jS8d5q75t60+9v3T0pGhrZRu42fv3yF4WgQPKShwTt4ddXRnPtHXGhjYl+fvuPzr+arjU8uTDTBa/bwn529clN9t0OY3di+9eK/LMW1SlxiDBm1fjXfEzmK6fR5o0N82shMUmJoTEB7RZba4O6kez5V+d50C2i30w9u4bPp3mTmva09s32eT8nOm8dlW3uxyqPfWYZUp/SNxALeV4/r3fO+lezgynZJeHHjQ3zYBIigwJbLrE7nDfBsnfPye7VUfX3Ol8JviJLhuU49AthBnhq/7SA60W2i97ACIcfXhkDThD0F/aenCJIL+thEf0idH+rdD3e+SKP/lo4LjonxqG4dN/54V+uFlwxX9v4vqommctpU3Vof5Kdwm+pfZ3gt3bXvP1+8h3/NwCke2GQw42eEkS/PF95v1EhSYlhMQ4smAm2Q8d+5ctl/eL9cKy3FB5wbj4OQ2k5kLQ1HcgufOwZU7FnF28VlubpTtnRCuq97UXyL+09GBsgoV6iRoE0et/jbIWQ+e8lpPWZa/ZPXHKql6FC7JYHyktM1VqUIx2qbbMZpU3+4xJJ1e3b10/R9DDPRb7Aw3/KVj/KcyFV4s1CIfvX1GENIShNCdANeCIDPkbKL/ZNrwhlKeJAcKKcue6/FdVR+noRLTeUX5zCoe8N0MAfbB0hIICQKF/FMEGh5dW7uqEoqh39QOib5nvKcIYPzRdcjCEgIEBSYmFPU2SeJHYc6dOydpc2WGvMl4DuS39yRf/5LYJ/dPjH9qeo6gv8ZCTlBgasIh/U3bCUgqCCzxVR+Mf1r6jaC/xqb/1oMEBaYlJNPZbZpOwOwGu7VJawYy8z+1dTFSOrsl7el8wvinqNcI+usk4QQFpigs6TkBKSbDknsYfCRY6qSIDL3EymZ6+szXJWKGKOu/GIIC0xMaWQ4P+YigSak4k6wmoaOj2eT6V0xiGXJZsqJJit/EdFniW11G5JGgwMSEZmYAUzgiKDPgNjcSDm0rQJIDPXLw7O1GFEXAhbDsn6IOI+jPmEiydJaiAOmToTsBu5PqK0Mz6m37k00Ov2VMUQRYEMY/Pd1F0J8FQZRLZNoqF56PX/iGKkwy85UZMBzV7ww1ORC3ncavf7rJJ0F/FlyAc+ckn3e3AUmViMPo9xCdgF11/VG4POXnSOlvWFEYHgtN6lhnQnEr22RWAtc90m74VSNYwzDq2wRp9e/D8qx3LuoPzhyB53Klb6zu8yDH+52s0HpcHO7tXn7+7iFpLYlZSvFUR0LcPXWcdbHfErA+JC4H2ReCAgdpENYK1aKAyechH6sZF9UD02Xj6ni537H/W27lk6uWR5deOu/jVkAXymwWq/Rq7GNF+9vr2KHHK7mQn8Z15Hsv3cORmvYkHYpgi6c99GOCMjPOL1efHxflM5nSv4pw7N7KlX55VBw+kULqX4lRQielqZOGuEXZ2Bj7epCgwDSFbW4IxeOWGZcv/rmu995Hnr19vKc/LXEwI1X92+ye+8YrJ3PcTP8V5Vc7KJPyB3J9crZf3j/+6s8/4Bofn/VlE/2YaVwpLx79JjkefPIv2boJCoxHSGwotOmMa1hxAW2E+cED/f5sr/q4LKvLfnqm9Peyif7pbMXg97nSJtMLv5Or8pVM6R/vqvLr40uH+dD279tgL8/OtiOv2uA2Zcah2wj6ays1hp8nKDAOQbGr0NLJHNhWfGS/XQyV3DYoW2fnv/bCR/Pi2idkNSGbHN73wMWXPiufZTVFlurH6tpHHrhYfkiel5n8jjq6s22dKTwveOVqeLEaduV0WLqKoL8AJJ2gwGEJVVcFlNqWQACil2wTSO6DziHoLyDxJygQgRTHod6PnujHAqImTRkQAiz5o2fmeial+KMoRJigQITz5upBoY/EKYyCuDQyCgS4zAf9MtcvBP0FKrIszSGkN4VUotOJzg1UUuNplsz6iTNCr8z1CkF/gcsuwoqwzoVV/tbXSbMaELjUhtm86aoigX6L8pTyZ4L+wpTTM62SAI2UiUrfTztBxAacERG+2IAAe/2n5Qd9MvybSTeIQ3w/zQT4bYiLIC9ygJMC8cmy6xZLUp9pfglkZ1F2Uv5c84FVRNei2K++6TldhDhlwV3XdyJ4+8nWUN/mEh/05Uqdsa93hsr5QfeLoEAE+qxAV8eDJj2d64wADgD6YllfSLbZzoTiRf8IEBSIUC8KNVG8/mUy1BYwYUBXLOoKsR2hcpV2tUCAoEAEey7YEh/Sgjo8mhACxA6hJ+Z6gkx/AxJ8BBvBngo2Hv2AxNpKV7KifGZuBPibpt4g6M+KaPktlKDANIV5UYmLV++XhdQeOgLEAaAnJP9D6DylfR0QYI8P4SZFcAfBSeQV4caiw8jn9PQFQX8DF3aCAtMT6kVFTnrggQt4j+4xQUhbNxD010N4YnqVZb50BZ1TADFJqtu2CjcWnUU+p6MnCPpzK2tea5OgwFyR4ztFBYcD4FX0gq5cln9TlInU+0zQX9BiaadxEhRIys90PPxbSq68YJpR9YVDqroyKqqHTJdNeWcREJxludb0kU4ChVPUB/qEoL+zMpbEN+z5pSXw4vCZJvYyh6QOOUpGumGzSM+N/qLTbmM1h5whaekEkV+zTKW0qBDg3G86Am/DYGzeSqqOhV/nLx3eF5VQBNLYVUb/1kpOfUPb26ZPdSw7dIv18XlouoK8IIGIut9mEBQ4NMFe3R/TS8Zt9oynM9fpNoHpdviVHnO1izHfVdcflS2VxZn+ZsNrXolvdupWc2tzG3knNHzICWJObqMviaDAFBSUOUMhRkr2oJsbqbP4igJKfXVA5G4+y+9jdMVhkDEx5VhxGuAsX0Mz4H3aI3JriivRGz86MEWAoMDhCn1tqA3c5y05BPoYqo1Kq9BHu0X5VG0QDbQ1RLmWGb70TxwfG3vtMs7ZRD/Wt+9MCIarC0QGic/pKyEDfZ/9v2EKvom9/6nxd4lPdVzPbGdOQWxKS9pbL+dLbv1CH/VZLdnoOKmzY2Iimxu64CyubcchzOcJ+huo+TbTLYIChyX4Jpb7ZObq0oBtUpz11oEseRflUzLblQBDX86B1Cv11225Zehf3dR+Z78ZyOdubbVnhdPiDJek6za3DWjG2lBKkAgQFDgcJ8DEbHB6zj8STAp9VPNXZt1F+YwY5/n/c4dBjPa6/2XWPn9+/rdOnz0vN5YEWoU+6qtc3K/6RMKxCJ0Igv76SkNC78seoI09Srx8twrOhNBLkhDGze24GcPbxCqAOD4RGjzafIuzJlYBEzJ/dFUQkOXNUJZ9EeZbwtwKCwzASSu8BmbojDiAAW3/pDyWffrua4sMSxo5AiwBdjS8QRiS/vt9zP5jHv9Z2w04gRwLjJkHBP1Fbob9Nh/hj0/4TS351XvfQTgz8Y1BnxmbyXclfsOEBiEgMEYO9p8EmOAOZUSOQFRBYBisExOBf9Oz4DEqPdp8xoEwkFeB1aC4eGVi+ydys0XzTSFAUGBEwm8g+lt40ybN7xmDgxMWVOyBnIYwoQtYEYpFD1THorNNjDllgECNAEGBcQi/qYAfToHEMd5NnC/ZEjKhxmYTgbeb1MkzfvgjY21KB5jgDGUMCAGCAv0IdVNlaiLjn9BVEv80rZPnwubEfHxEdk2oInRA6ONN0J8JnlPGGgQICgxTAZjc8yMbZJhjPDfmXf6aCgYUtUBMUJj8MLXVs0b18zUITBFAAYSlAEwv+xHxHdb4djH4q94xtS8s5cCRwDhiKPYHGwcCWxGY7QWGkfOcgDMjUf/zQZf9w1XGg+8CU/gdeG/idAg8CZEHBP3NeclfRwgQFBiGIjC5tCvUYfk/jHG14XCZ3CYSrrAd6J8rplf/HJkPqhkCApwN9qsARPhNLevO+cjSrt8xtWH4T5VpICfAnCvyl9MivvlC0N8iH/nsGAHOi/tTAKYiu+eUwaHzN5anjHSH5f2m75vcBhDecGLEH2cI+ptrLv56RYAEIe6VgOml/1qZq+pKU0PCc+7H3ATmprcBhDdsBXjgAkF/Xm0elS8gQFCgBwVgeClXhlO2FEwYGcrwwIc2qwaGucOpANfjTdDfgvnhYwgIyFIgBsSVIjB/yQcJXlyNnf96TG8DiP7JVXkBx8/+2BL0F4K1ow0rEWAP2b4CqJWs4RncVIGz/J+KAbOxfSQcYgLgQv4J+ltpfPgyDAQICrStBMzP/oU5RP/bHrewyrehLYgFsDvGgq+NcaNMEDCKAEGB9hSB6ch/GXgiue2NV7CrCvt6x6jQwyOrN0DaWrUxzQHKA4FzBAXaMSiyxGqDXqza2BmvYI2/0ie2jpCRF8A8lwRT0/k+bOgRygSBmwgQFGhFEVy9CbDBDzK7CNlY0TbzXJItH4MUulkU2wBmx4qgv5vU4kNsCBAUaFYZ2NgDnB7hMttODHYceNq4Nx4HwOzY29jyi82O0N6IEeB4kDmFYMMBYPnf3PjE5/iYDyjF6TfHJxvyHrEpoemxIkBQoBmlYEMhEP1vZmziM/76RJaXTe8t4/Cb4RNBf7FaO9q9EgGCg/orBtMOALO1/mMSo+E/3Waz58qFo6fLB+O2eBD0t9KE8GXMCMxOBpBqtk3K1uVnDef/zgt91FY58fzQDJrZYEACSvvxg6C/mK0cbd+IgAQdYUD6KQhTS7bM/vuNw5B4bCo1MAGl/TlF0N9GE8KPsSPAHmFfJWFmyZa9/77jMJz3TcUCsPzfjxOmt/hitxW0f6AIEBTYR1H0vwlMksAMaQZLX/rwafZuz+0l8n70GwOC/gZq7OjWagQICuyjMLof32IFpg/uQ3+3G69m8T2v4oh14wdBf6ttBN8OGAGCArspi1tKtr2y3i3Kp26937d+3h8kloU+ahNnUu/7E0za+R4A2X6R1ZMBq3q6BgKrESAosKcRFcXbQHnUOKOkOyvpQRr65RMmC/8Wo5RN9GPbHIFddf1RYkl6yrCFS5lWa1u+BYEAEWBJuqcCkYtdlL4qyvj8pcP75kMsn0WJc9SvP76pOQDz/tazU1VdER4Jn+ackhiS6W9gO8eqy19Tpy/mMs9fEIgSAYLSUKRdFCjvwJt4OdB+Cy9K5U6jQaAJAsxUUebxKnPGjrFrzgGC/ppYBJ5JCoE6mEhVxyiS5ooErMAKDsTFAYL+kjJrdLYNAhKsxt5iXAoNA8R4wYEWHCDor41J4NnUECAosIUyWYjcRgmDGxwImwME/aVmzehvJwQICgxbkWFoGB840JYDBP11Mga8lCYCBAW2VTA8j1GCAyFygKC/NG0Yve6BAEGBKPMQlTltgpdtOEDQXw8jwKtpI0BQIMq2jbLlWfgSHAcI+kvbiNH7fggQFIhSD06pE3xJWuUGHCDor5/u520QqBEgKBAnACcADsTFAYL+MF8gYAwByXcflwJAYTNecCBFDkjQnzHFR0EgAALnzklQoAhWigqFPmNI4UAcHJCgv223KKLPQQAEOiBAUGAcShBjxTilygHRUR1UG6+AAAg0QSAr9MOpKhf6jWGFAyFzoLzQRIfxDAiAQA8ExpPq2yjCkBUhbYOfqXGAoL8eKp1XQaAdAgQFpqZg6S9ORZgcIOivne7maRDojQBBgWEqQ4wU45ISBwj6663KKQAEuiFAUCDGJiVjQ1/D4ztBf910N2+BgBEECAoMTyliqBiTNDhA0J8RJU4hINAHAYICMThpGBzGOZxxJuivj87mXRAwigBBgRiHcIwDYzHksSDoz6jqpjAQ6I8AQYEYnSEbHfoWBr8J+uuvqykBBKwgkO+9dE99/3aDm7pQqGEoVMaBcYiFA6JbCPqzoropFATMIJDv651YFArtxPjBgZg4QNCfGS1NKSBgEQG5hxvFGpNipa3wNWwOyJXkFlUWRYMACJhEIFfVFZRq2EqV8WF8ouBAoY9M6ibKAgEQsIwAQYEYlyiMC/EqJ2GPU3XM9b6WlTXFg4ANBAgKxAkI27gwPiGPD0F/NrQyZYKAQwQICsTIhGxkaFvI/CToz6GqpioQsIMAQYEhK1nahhMQHgcI+rOjiykVBLwgQFBgeEoWw8eYBMkBgv686GgqBQFrCBAUiLEJ0tgQBBhYECBBf9aUMAWDgE8ECArECcAJgAPrOEDQn0/tTN0g4AABSeW5TgHwPcYBDqTMAYL+HKhgqgABvwjkqryAok9Z0dN3+H+aAwT9+dXJ1A4CThEgKPC0AsQggEeqHJCrxJ0qHyoDARDwj4Dc652q0qPfGHw4oE9EB5Dpz78upgUg4ByB2cmAt1GEGEM4kB4HCPpzrnKpEATCQoCgwPQUP8aeMRcOZIV+OCxtRGtAAAScI0BQIAYBpyAtDown1bedKxoqBAEQCBMBggLTMgAY/HTHm6C/MHUwrQIBrwgQFJiuUcAhSGPsCfrzqmKpHATCRYCgwDSMAMY+zXEm6C9c3UvLQCAIBAgKTNM44BQMf9wJ+gtCxdIIEAgbAYICh28MMPhpjTFBf2HrXFoHAkEhIKlBMRJpGQnGe5jjTdBfUKqVxoBAHAjkhT7CKAzTKDCuaYwrQX9x6FpaCQLBISBBgbmqjjEWaRgLxnlY40zQX3AqlQaBQFwISFCgKBKMw7CMA+OZwHju6524tA2tBQEQCA4BnIAEjIWij8NyisoLwSkSGgQCIBAnAjgBGMhhGcjhjud4Uj0ep5ah1SAAAsEigBMwXKOBcR/G2MrpnWAVCA0DARCIGwGcgGEYCgz+EMeRZf+4tSutB4EIEBAnAAMyRANCn2LktQTpkuUvAsVJE0FgKAjUTgB5Ak5iNBi0eUCOjsjg3kv3DEWv0A8QAIGIEJCAI44JDsigcBogGqeO9L4RKUqaCgJDRUBmIJJulJkljgAccMGB6gqz/qFqU/oFApEiIPuQZA50YQCoI0VHo3aySe4TqXak2SCQCAL1SYH6MiHSCKdoqOizSQetOpalfmb8iShPugkCQ0IAZ8CkMaCsFJwLucBHjL7IzpB0AX0BARBIHIF8X+/U/6vygii5enYjkcz8DwaJcUCS9sxlQLbPMPiJK0e6DwIgAAIgAAIgAAIgAAIgAAIgAAIgAAIgAAIgAAIgAAIgAAIgAAIgAAIgAAIgAAIgAAIgAAIgAAIgAAIgAAIgAAIgAAIgAAIgAAIgAAIgAAIgAAIgAAIgAAIgAAIgAAIgAAIgAAIgAAIgAAIgAAIgAAIgAAIgAAIgAAIgAAIgAAIgAAIgAAIgAAIgAAIgAAIgAAIgAAIgAAIgAAIgAAIgAAIgAAIgAAIgAAIgAAIgAAIgAAIgAAIgAAIgAAIgAAIgAAIgAAIgAAIgAAIgAAIgAAIgAAIgAAIgAAIgAAIgAAIgAAIgAAIgAAIgAAIgYAyB/wevWO2Jz6FotwAAAABJRU5ErkJggg==;" vertex="1" parent="1">
          <mxGeometry x="510" y="290" width="172" height="172" as="geometry" />
        </mxCell>
      </root>
    </mxGraphModel>
  </diagram>
</mxfile>
